<svg width="389" height="584" viewBox="0 0 389 584" fill="none" xmlns="http://www.w3.org/2000/svg">
<g clip-path="url(#clip0_7_74)">
<path d="M174.662 258.256C174.227 257.085 172.221 256.756 171.999 258.256C171.251 262.135 169.928 265.88 168.076 269.369C167.836 269.849 167.552 270.346 167.251 270.843C166.913 269.955 166.576 269.023 166.274 268.109C165.067 264.416 163.958 260.671 162.085 257.253C161.197 255.709 158.446 256.313 158.623 258.185C159.105 262.037 159.901 265.842 161.002 269.565C161.437 271.189 161.818 272.92 162.289 274.633L160.931 274.349C158.439 273.833 156.015 273.031 153.706 271.961C153.414 271.8 153.079 271.739 152.749 271.786C152.42 271.832 152.114 271.985 151.879 272.22C151.644 272.456 151.491 272.761 151.445 273.09C151.398 273.42 151.459 273.755 151.62 274.047C153.129 276.585 155.295 277.899 158.037 278.911C160.022 279.718 162.116 280.227 164.25 280.42C164.539 280.846 164.965 281.159 165.458 281.307C167.011 282.532 169.896 281.982 169.674 279.532C169.674 279.355 169.629 279.186 169.612 279.009C171.387 276.488 172.363 272.849 173.402 270.31C174.822 266.644 176.073 262.073 174.662 258.256Z" fill="#FCD8D6"/>
<path d="M153.209 406.575C137.072 401.373 127.788 384.021 125.897 367.92C123.039 343.448 133.522 321.258 139.362 298.19C139.433 297.932 139.043 297.746 138.918 298.003C128.933 320.317 119.285 346.058 123.057 370.911C125.249 385.432 135.439 408.616 152.889 408.927C153.16 408.896 153.412 408.775 153.606 408.585C153.801 408.394 153.926 408.144 153.963 407.875C153.999 407.605 153.945 407.331 153.809 407.095C153.672 406.86 153.461 406.677 153.209 406.575Z" fill="#FCD8D6"/>
<path d="M183.849 409.078C183.775 408.831 183.647 408.604 183.474 408.413C183.301 408.223 183.087 408.074 182.848 407.976C182.61 407.879 182.353 407.837 182.096 407.852C181.839 407.868 181.589 407.941 181.364 408.066C181.077 408.189 180.78 408.287 180.476 408.359C179.89 401.799 181.949 395.266 181.523 388.672C181.511 388.335 181.391 388.011 181.181 387.747C180.972 387.484 180.683 387.294 180.358 387.206C180.033 387.118 179.688 387.136 179.374 387.257C179.06 387.379 178.793 387.598 178.612 387.882C177.82 389.101 176.93 390.252 175.949 391.326C177.218 384.562 178.869 377.932 178.301 370.911C177.973 366.81 175.275 365.931 171.582 366.473C169.625 366.872 167.78 367.696 166.177 368.887C164.286 370.094 157.709 373.902 158.543 368.834C159.431 363.508 162.928 358.697 164.952 353.745C166.727 349.307 167.615 343.688 166.549 338.975C165.2 332.984 159.147 331.626 153.892 332.478C149.818 333.143 145.753 334.137 142.416 331.022C139.913 328.688 139.513 324.693 139.451 321.489C139.336 315.134 141.226 308.042 143.8 302.246C143.838 302.182 143.849 302.106 143.83 302.035C143.812 301.963 143.766 301.902 143.703 301.864C143.639 301.827 143.563 301.816 143.492 301.834C143.42 301.852 143.359 301.898 143.321 301.962C138.173 309.95 133.69 323.309 139.771 331.989C143.543 337.404 149.978 335.984 155.543 335.291C165.919 334.004 164.535 345.872 162.156 352.333C160.647 356.452 149.073 373.636 159.493 374.727C164.881 375.304 168.413 370.005 173.57 369.544C178.008 369.153 172.594 391.113 172.132 393.971C172.06 394.252 172.062 394.547 172.138 394.827C172.215 395.107 172.363 395.362 172.568 395.567C172.774 395.773 173.029 395.921 173.309 395.997C173.589 396.074 173.884 396.076 174.165 396.003C175.811 395.591 177.302 394.713 178.461 393.474C178.141 399.11 176.686 404.684 177.396 410.391C177.4 410.645 177.462 410.894 177.576 411.12C177.69 411.347 177.854 411.544 178.056 411.698C178.258 411.852 178.491 411.958 178.74 412.008C178.988 412.059 179.245 412.052 179.491 411.989C179.997 411.829 180.511 411.723 181.017 411.607C183.236 420.386 179.242 430.087 178.159 438.794C177.964 440.294 180.467 440.57 180.778 439.149C182.828 429.652 187.035 418.761 183.849 409.078Z" fill="#FCD8D6"/>
<path d="M357.268 517.365C356.762 501.53 353.94 485.819 353.665 469.985C352.777 421.921 344.709 373.449 326.673 328.767C319.387 310.616 310.543 293.13 300.24 276.505C289.74 259.641 276.275 244.028 264.789 228.744C254.28 214.764 247.286 201.024 246.682 183.352C246.398 174.875 245.555 166.487 245.794 157.957C245.882 153.951 246.354 149.962 247.206 146.046C248.138 141.918 248.981 137.374 250.401 133.424C251.706 129.812 248.093 126.891 244.863 127.273L244.525 127.051C235.907 121.903 223.294 122.764 213.77 123.891C208.111 124.549 202.541 125.829 197.163 127.708C194.265 128.634 191.481 129.885 188.864 131.436C187.809 131.487 186.805 131.904 186.024 132.615C185.244 133.326 184.735 134.287 184.586 135.332L184.47 135.483C182.766 137.915 184.47 140.401 186.734 141.191C190.532 149.774 191.642 159.83 192.388 168.999C192.858 174.813 193.053 180.645 193.195 186.467C193.328 191.589 193.666 196.692 192.583 201.734C192.569 201.806 192.551 201.877 192.53 201.947C192.45 202.089 192.352 202.231 192.263 202.382C191.34 203.863 190.812 205.556 190.728 207.299C187.603 214.143 181.932 219.326 176.144 224.341C167.686 231.664 157.966 238.765 152.375 248.715C151.76 249.815 151.401 251.039 151.324 252.297C151.248 253.555 151.457 254.814 151.934 255.98C152.412 257.146 153.147 258.189 154.084 259.032C155.02 259.875 156.135 260.496 157.345 260.848C158.985 261.228 160.699 261.138 162.29 260.586C163.881 260.035 165.283 259.046 166.336 257.733C167.834 259.329 169.838 260.357 172.008 260.644C173.934 264.585 178.461 266.857 183.485 265.97C184.461 265.792 185.411 265.552 186.343 265.295C186.555 267.77 187.626 270.094 189.37 271.863C192.405 274.899 198.45 276.354 202.151 273.514C203.092 272.777 204.024 272.032 204.947 271.286C205.217 274.043 206.533 276.592 208.625 278.408C210.717 280.224 213.425 281.17 216.193 281.05C210.042 287.751 203.838 294.364 198.441 301.767C193.737 308.246 199.914 316.856 206.82 317.61L206.651 317.868C205.678 319.3 205.138 320.983 205.095 322.714C205.053 324.446 205.51 326.153 206.412 327.631C203.246 332.418 200.121 337.232 197.039 342.072C193.976 346.892 196.826 351.454 200.909 353.114C198.37 357.026 195.858 360.967 193.373 364.937C189.92 370.449 192.893 376.289 197.562 378.846C193.367 384.889 189.632 391.238 186.387 397.84C184.408 401.932 184.612 406.601 187.95 409.965C189.192 411.159 190.72 412.015 192.388 412.45C189.494 418.442 194.624 424.877 200.376 425.809C199.105 428.755 198.031 431.782 197.163 434.871C195.21 441.821 200.385 446.65 206.136 446.942C201.644 452.916 197.654 459.252 194.207 465.884C193.213 460.31 192.281 454.727 191.305 449.153C190.151 442.531 189.361 435.271 186.228 429.217C182.349 421.726 171.485 424.14 169.203 431.436C164.419 446.747 164.206 463.336 162.449 479.18C161.743 486.724 160.349 494.187 158.286 501.477C157.469 492.969 157.318 484.41 157.833 475.878C158.543 459.014 161.144 441.954 160.239 425.036C159.715 415.095 146.392 413.409 143.188 422.729C137.552 439.105 135.439 456.6 131.347 473.384C129.306 481.772 126.625 491.136 123.359 498.29C122.183 500.867 120.849 503.369 119.365 505.782C118.901 501.838 118.741 497.865 118.885 493.897C119.081 483.707 120.598 473.579 121.868 463.478C123.155 453.218 124.965 443.064 126.563 432.883C128.338 421.513 129.803 409.299 126.359 398.089C124.433 391.822 115.282 389.95 111.944 396.198C105.527 408.216 101.648 421.167 98.506 434.365C99.3573 425.55 99.0589 416.662 97.6184 407.924C96.4379 401.169 86.9672 400.983 83.834 406.148C69.73 429.226 64.4665 455.534 57.8894 481.408C57.4811 452.792 64.2357 423.643 73.7508 397.299C76.2982 390.243 65.1145 387.26 62.567 394.21C55.1201 414.625 46.0399 434.631 38.8858 455.206C39.7734 435.679 41.8593 416.356 47.7619 397.778C47.8096 397.662 47.834 397.537 47.8336 397.411C47.8331 397.285 47.8078 397.16 47.7592 397.044C47.7106 396.928 47.6395 396.822 47.5501 396.734C47.4607 396.645 47.3547 396.575 47.2382 396.527C47.1216 396.479 46.9968 396.455 46.8708 396.455C46.7448 396.456 46.6202 396.481 46.504 396.529C46.3877 396.578 46.2823 396.649 46.1935 396.738C46.1047 396.828 46.0344 396.934 45.9867 397.05C29.353 429.892 30.1075 468.138 27.347 504.042C26.8944 509.927 36.8266 511.311 37.6876 505.444C39.2574 495.107 41.5621 484.894 44.5843 474.884C43.7371 489.471 44.7934 504.107 47.7264 518.421C48.3921 521.59 51.6851 523.809 54.8272 523.809C58.3776 523.809 60.6143 521.483 61.928 518.421C70.5821 497.891 74.3544 475.727 80.3013 454.336C79.7776 456.901 79.2362 459.449 78.6948 461.987C74.9136 479.855 70.9194 498.095 72.4815 516.468C73.1561 524.59 82.973 527.492 87.6329 520.569C94.5473 510.317 99.0119 499.187 102.367 487.648C102.127 490.541 101.959 493.435 101.888 496.337C101.648 506.358 102.678 517.746 108.598 526.188C111.261 529.942 116.267 532.028 120.51 529.312C129.59 523.498 135.599 514.666 139.921 504.912C140.933 513.788 143.214 522.504 147.768 530.191C148.523 531.444 149.552 532.511 150.777 533.31C152.003 534.11 153.393 534.622 154.844 534.808C156.296 534.994 157.771 534.849 159.158 534.385C160.546 533.92 161.81 533.148 162.857 532.126C172.878 522.034 177.112 508.631 179.517 494.971C182.926 510.655 190.311 534.433 207.974 530.475C207.912 530.883 207.858 531.282 207.805 531.691C207.139 531.948 206.447 532.161 205 532.711C202.338 533.732 199.675 534.824 197.118 536.04C191.692 538.547 187.301 542.857 184.692 548.236C182.029 554.182 183.68 562.97 191.269 564.408C192.512 564.647 193.737 564.816 194.962 564.94C195.92 572.982 201.885 579.719 209.882 582.266C217.879 584.814 227.022 582.559 234.62 580.091C250.792 574.846 265.561 566.68 277.775 554.83C280.438 552.274 283.003 549.558 285.63 546.957C286.638 548.919 287.859 550.765 289.269 552.46C294.79 559.073 303.071 560.822 311.184 559.428C316.208 558.541 321.036 556.597 325.741 554.511C325.865 562.499 334.324 569.849 342.96 564.709C358.227 555.532 357.756 532.96 357.268 517.365ZM196.471 138.67C196.337 138.448 196.213 138.217 196.08 138.004L197.118 137.551C196.863 137.9 196.646 138.275 196.471 138.67ZM257.342 420.758C253.872 427.282 250.392 433.841 246.797 440.348C234.584 456.378 222.06 471.795 214.258 490.621C212.483 494.882 214.507 498.947 217.808 501.432C216.095 504.734 214.524 508.098 213.14 511.524C211.193 510.499 208.963 510.14 206.793 510.504C206.58 510.184 206.35 509.865 206.145 509.536C205.228 508.042 204.418 506.485 203.722 504.876L203.429 504.104C202.985 502.977 202.595 501.832 202.204 500.687C201.459 498.459 200.802 496.204 200.172 493.941C199.089 490.009 198.166 486.032 197.305 482.047C201.184 484.044 206.332 483.627 209.394 480.272C227.288 460.509 243.852 439.581 258.975 417.625C258.452 418.664 257.892 419.729 257.342 420.758Z" fill="#E7D4FF"/>
<path d="M188.349 288.497C186.476 287.609 184.568 286.722 182.677 285.878C181.878 285.515 181.097 285.124 180.334 284.698C179.972 284.485 179.595 284.298 179.207 284.139C178.858 283.94 178.473 283.815 178.074 283.773C177.676 283.73 177.272 283.77 176.89 283.89C176.648 283.641 176.34 283.466 176.002 283.384C175.006 283.113 173.955 283.113 172.958 283.384C172.599 283.483 172.262 283.651 171.968 283.88C171.674 284.109 171.428 284.393 171.244 284.718C171.06 285.042 170.942 285.399 170.897 285.769C170.851 286.138 170.879 286.514 170.979 286.873C171.294 287.642 171.693 288.374 172.168 289.056C171.582 291.222 171.742 293.76 171.671 295.828C171.573 298.882 171.085 302.787 172.097 305.734C172.203 306.082 172.407 306.392 172.684 306.627C172.962 306.862 173.302 307.012 173.662 307.059C174.023 307.106 174.39 307.048 174.718 306.891C175.047 306.735 175.323 306.487 175.514 306.178C176.854 303.71 176.783 300.178 177.041 297.453C177.112 296.707 177.245 295.908 177.396 295.074C179.464 297.462 181.985 300.941 184.781 302.335C185.072 302.498 185.404 302.572 185.737 302.548C186.07 302.524 186.388 302.403 186.653 302.2C186.917 301.997 187.117 301.721 187.226 301.405C187.335 301.09 187.349 300.749 187.266 300.426C186.645 297.488 183.6 294.337 181.816 292.038L181.639 291.799C183.156 292.367 184.683 292.908 186.219 293.441C188.722 294.328 192.299 295.447 193.541 297.994C193.608 298.109 193.707 298.202 193.826 298.261C193.946 298.319 194.08 298.342 194.211 298.324C194.343 298.307 194.467 298.252 194.567 298.165C194.668 298.077 194.74 297.963 194.775 297.834C196.275 293.37 191.953 290.254 188.349 288.497Z" fill="#FCD8D6"/>
<path d="M213.14 267.266C208.897 269.431 205.053 271.704 200.438 273.124C198.663 273.683 196.763 274.171 194.882 274.579C190.049 273.241 184.895 273.715 180.387 275.911C184.394 271.073 186.429 264.902 186.085 258.629C186.077 258.342 185.995 258.062 185.847 257.815C185.699 257.569 185.49 257.365 185.241 257.222C184.991 257.08 184.71 257.004 184.422 257.001C184.135 256.999 183.852 257.071 183.6 257.209C177.13 260.609 170.97 269.476 171.085 277.393L170.757 277.792C170.549 278.013 170.401 278.284 170.327 278.578C170.253 278.872 170.256 279.181 170.335 279.473C170.414 279.766 170.567 280.034 170.779 280.251C170.991 280.468 171.256 280.627 171.547 280.713V280.819L170.739 280.668C168.245 280.207 167.188 283.864 169.674 284.52C178.461 286.784 191.597 286.429 196.426 277.375C202.852 275.44 210.06 272.476 213.495 267.612C213.663 267.399 213.335 267.15 213.14 267.266ZM178.523 281.698C179.02 281.609 179.526 281.494 180.059 281.396C183.609 280.704 187.159 279.825 190.71 278.946C187.399 281.423 182.908 281.938 178.523 281.698Z" fill="#86B79D"/>
<path d="M188.189 26.1487C196.533 16.3851 206.154 3.07112 220.143 2.47643C231.611 2.02375 230.732 17.3437 232.569 25.057C232.624 25.2538 232.724 25.4354 232.86 25.5879C232.996 25.7404 233.165 25.8598 233.354 25.9369C233.544 26.014 233.748 26.0468 233.952 26.0327C234.156 26.0187 234.354 25.9582 234.531 25.8558C237.016 23.9919 239.448 22.0658 241.898 20.1574C243.229 23.4149 242.785 26.9298 244.268 30.1252C245.555 32.9123 248.155 33.7289 250.951 33.9241C252.256 43.5191 245.013 53.5135 241.782 62.1055C241.661 62.52 241.683 62.9633 241.844 63.3642C242.005 63.765 242.296 64.1001 242.67 64.3156C245.75 65.7002 247.064 64.5109 249.656 62.638C250.943 61.706 250.188 59.132 248.484 59.851C248.084 60.0196 247.215 60.4279 246.389 60.7386C249.735 51.6229 255.203 42.0279 253.534 32.2022C253.453 31.8996 253.274 31.6323 253.025 31.4415C252.776 31.2506 252.472 31.1468 252.159 31.1459C247.721 30.9329 246.549 29.3707 245.945 25.341C245.612 22.6067 244.766 19.9597 243.451 17.539C243.365 17.392 243.251 17.2635 243.115 17.1607C242.979 17.058 242.824 16.983 242.659 16.9401C242.494 16.8973 242.323 16.8873 242.154 16.9109C241.985 16.9345 241.823 16.9911 241.676 17.0775C239.324 18.8527 237.025 20.6279 234.708 22.4031C233.155 13.8821 232.889 0.958629 222.087 0.106532C206.749 -1.09173 194.615 13.9709 187.896 25.9624C187.79 26.1044 188.047 26.3174 188.189 26.1487Z" fill="#7B6A58"/>
<path d="M164.322 236.075C164.122 235.884 163.877 235.748 163.609 235.679C163.342 235.61 163.061 235.611 162.794 235.681C162.527 235.751 162.282 235.889 162.084 236.081C161.885 236.273 161.739 236.512 161.659 236.777C160.594 240.327 160.647 245.067 163.194 247.943C163.247 248.211 163.386 248.454 163.589 248.637C163.792 248.819 164.05 248.931 164.322 248.954C164.584 249.147 164.859 249.319 165.147 249.469C166.452 250.162 167.908 248.449 166.763 247.375C166.683 247.312 166.612 247.232 166.532 247.161C168.396 243.709 166.834 238.756 164.322 236.075Z" fill="#7B6A58"/>
<path d="M170.579 235.729C171.236 234.486 171.103 233.306 171.076 231.912C171.076 229.969 171.076 228.025 170.943 226.09C170.929 225.808 170.818 225.54 170.627 225.332C170.436 225.125 170.179 224.99 169.9 224.952C169.62 224.914 169.337 224.975 169.097 225.125C168.858 225.274 168.679 225.502 168.591 225.77C167.464 229.471 167.526 233.945 169.399 237.407C169.585 237.735 170.189 237.611 170.144 237.202C170.1 236.794 170.073 236.51 170.029 236.164C170.145 236.133 170.254 236.078 170.349 236.003C170.443 235.928 170.522 235.835 170.579 235.729Z" fill="#7B6A58"/>
<path d="M190.666 229.986C190.499 230.005 190.345 230.085 190.233 230.21C190.122 230.336 190.06 230.497 190.06 230.665C190.06 230.833 190.122 230.995 190.233 231.12C190.345 231.245 190.499 231.325 190.666 231.344C191.649 231.433 192.612 231.682 193.515 232.081C194.402 232.472 195.148 233.12 196.027 233.528C196.905 233.936 198.246 232.72 197.287 231.895C195.383 230.479 193.031 229.801 190.666 229.986Z" fill="#7B6A58"/>
<path d="M195.53 242.626C195.53 242.741 195.53 242.857 195.476 242.972C195.341 242.957 195.205 242.973 195.077 243.019C194.949 243.065 194.834 243.14 194.739 243.238C194.645 243.336 194.574 243.454 194.533 243.583C194.491 243.712 194.48 243.849 194.5 243.984C194.959 246.063 195.141 248.194 195.041 250.321C194.935 252.274 197.988 252.274 198.086 250.321C198.082 250.289 198.082 250.256 198.086 250.224C198.345 250.363 198.635 250.437 198.929 250.437C199.224 250.437 199.513 250.363 199.772 250.224C198.654 251.608 197.509 252.957 196.355 254.271C189.796 261.754 181.621 268.988 171.769 271.473H171.706C175.177 266.76 177.431 261.887 173.082 255.771C173 255.656 172.892 255.562 172.766 255.497C172.64 255.432 172.5 255.398 172.359 255.398C172.217 255.398 172.078 255.432 171.952 255.497C171.826 255.562 171.717 255.656 171.635 255.771C170.765 256.952 169.981 258.195 169.292 259.49C169.961 256.11 170.85 252.777 171.955 249.514C172.221 248.715 172.514 247.898 172.843 247.082C173.33 247.267 173.859 247.312 174.371 247.212C174.882 247.111 175.355 246.869 175.736 246.513C177.014 245.297 176.712 243.105 176.482 241.57C176.472 241.514 176.454 241.46 176.428 241.41C176.52 241.483 176.626 241.536 176.738 241.568C176.851 241.6 176.969 241.609 177.086 241.595C177.202 241.581 177.314 241.544 177.416 241.486C177.518 241.429 177.608 241.351 177.68 241.259C178.781 239.883 180.52 238.001 180.414 236.084C180.387 235.862 180.316 235.648 180.205 235.454C180.093 235.261 179.944 235.091 179.766 234.957C181.867 232.5 184.562 230.62 187.594 229.498C187.785 229.43 187.942 229.293 188.035 229.114C188.128 228.935 188.15 228.727 188.096 228.532C188.042 228.338 187.916 228.171 187.744 228.065C187.572 227.959 187.366 227.923 187.168 227.963C184.805 228.404 182.575 229.385 180.653 230.83C180.739 230.697 180.799 230.549 180.831 230.395C181.251 227.681 181.317 224.924 181.026 222.193C181.026 221.536 180.139 220.986 179.597 221.598C178.951 222.29 178.401 223.067 177.964 223.906C177.662 224.59 177.529 225.335 177.272 226.037C177.147 226.374 177.671 226.578 177.84 226.276C178.229 225.437 178.689 224.632 179.216 223.871C179.136 224.803 179.011 225.717 178.869 226.631C178.638 226.834 178.493 227.116 178.461 227.421C178.328 228.289 178.24 229.163 178.195 230.04C178.202 230.255 178.26 230.466 178.364 230.655C178.468 230.844 178.615 231.006 178.793 231.128C178.971 231.249 179.175 231.328 179.388 231.356C179.602 231.384 179.82 231.362 180.023 231.291C176.02 234.486 173.135 239.368 171.05 243.984C170.426 244.662 169.895 245.42 169.47 246.238C169.328 246.522 169.7 246.851 169.94 246.593C168.102 251.161 166.7 255.893 165.751 260.724C165.751 260.857 165.697 260.999 165.671 261.132C164.802 259.215 163.562 257.49 162.023 256.055C161.802 255.839 161.506 255.719 161.197 255.719C160.889 255.719 160.592 255.839 160.372 256.055C156.821 260.191 157.469 265.118 159.36 269.698C156.218 268.455 152.943 268.961 149.836 271.668C149.636 271.868 149.507 272.129 149.47 272.41C149.433 272.691 149.49 272.976 149.632 273.221C150.27 274.6 151.251 275.792 152.481 276.683C151.26 276.452 150.022 276.33 148.78 276.319C148.558 276.319 148.346 276.407 148.19 276.563C148.033 276.72 147.945 276.932 147.945 277.153C147.945 277.375 148.033 277.587 148.19 277.743C148.346 277.9 148.558 277.988 148.78 277.988C152.379 278.038 155.842 279.372 158.543 281.751C159.431 282.55 160.762 281.29 159.892 280.402C158.909 279.405 157.758 278.588 156.493 277.988C157.621 277.948 158.726 277.659 159.729 277.14C160.731 276.621 161.606 275.886 162.289 274.988C162.348 274.92 162.393 274.841 162.42 274.756C162.448 274.67 162.457 274.58 162.449 274.491C162.676 274.498 162.901 274.445 163.1 274.337C163.3 274.228 163.467 274.069 163.585 273.875C163.702 273.68 163.766 273.458 163.769 273.231C163.772 273.004 163.715 272.78 163.603 272.582C161.268 268.446 158.552 263.085 161.313 258.665C163.014 260.669 164.21 263.053 164.801 265.615C164.428 268.109 164.322 270.683 165.183 272.636C165.733 273.86 167.428 273.337 167.783 272.298C168.458 270.354 168.44 267.976 168.493 265.686C169.587 262.989 170.847 260.362 172.266 257.821C177.201 267.186 164.801 273.798 161.277 281.671C161.16 281.886 161.1 282.127 161.103 282.372C161.106 282.616 161.171 282.856 161.293 283.068C161.415 283.28 161.59 283.457 161.8 283.583C162.01 283.708 162.249 283.777 162.493 283.784C166.416 283.961 170.322 284.671 174.245 284.849H174.822C174.688 285.125 174.635 285.433 174.668 285.738C174.701 286.043 174.819 286.332 175.009 286.573C175.199 286.813 175.453 286.996 175.741 287.099C176.03 287.202 176.342 287.222 176.641 287.157L177.165 287.032C174.653 291 175.763 294.044 178.053 295.713C177.919 296.429 177.645 297.112 177.245 297.721C176.846 298.331 176.33 298.855 175.727 299.264C170.979 302.432 172.239 291 172.532 289.633C172.537 289.575 172.522 289.517 172.49 289.469C172.457 289.421 172.408 289.386 172.352 289.371C172.296 289.355 172.236 289.359 172.183 289.383C172.13 289.406 172.087 289.448 172.061 289.5C171.067 292.429 168.582 303.151 175.372 301.767C178.124 301.199 179.544 299.21 180.13 296.787C183.591 297.897 187.887 296.681 188.384 292.252C189.383 293.151 190.554 293.836 191.827 294.265C193.101 294.694 194.448 294.858 195.787 294.746C198.716 294.568 201.299 292.136 200.624 289.056C199.045 281.742 190.79 281.254 183.591 282.337C186.077 277.553 181.017 274.091 176.065 272.467C178.47 271.721 180.775 270.68 182.926 269.369C182.95 269.659 183.08 269.93 183.291 270.13C183.502 270.329 183.78 270.444 184.071 270.452C185.892 270.419 187.665 269.857 189.174 268.837C190.062 268.233 189.521 266.671 188.411 267.061L186.929 267.55C186.849 267.382 186.726 267.238 186.574 267.132C186.537 267.103 186.499 267.076 186.458 267.053C190.38 264.056 194.03 260.721 197.367 257.085C203.829 250.259 209.944 242.173 213.779 233.395C213.68 233.71 213.672 234.046 213.754 234.365C213.836 234.685 214.005 234.975 214.243 235.203C214.481 235.432 214.778 235.59 215.1 235.659C215.423 235.728 215.758 235.707 216.069 235.596C217.755 235.268 219.104 234.105 220.382 233.031C221.661 231.957 220.036 230.155 218.705 230.856C217.841 231.312 217.005 231.819 216.202 232.374C216.024 232.498 215.811 232.64 215.625 232.747C215.624 232.595 215.579 232.447 215.496 232.32C215.412 232.193 215.293 232.093 215.154 232.033C215.014 231.973 214.86 231.955 214.711 231.98C214.561 232.006 214.422 232.075 214.311 232.179C214.799 230.989 215.243 229.791 215.643 228.575C215.727 228.251 215.705 227.908 215.578 227.598C215.452 227.287 215.228 227.026 214.941 226.853C213.45 225.726 212.279 225.726 210.503 226.143C208.888 226.516 209.332 228.868 210.885 228.93C211.342 228.916 211.798 228.961 212.243 229.063C211.267 231.875 210.059 234.6 208.631 237.211C207.946 234.905 206.891 232.726 205.506 230.759C205.351 230.514 205.122 230.326 204.852 230.221C204.582 230.116 204.286 230.101 204.007 230.176C203.727 230.251 203.479 230.414 203.299 230.64C203.118 230.866 203.015 231.144 203.003 231.433C203.074 234.096 202.533 236.919 203.358 239.555C203.434 239.783 203.587 239.978 203.791 240.105C203.995 240.232 204.237 240.284 204.476 240.251C204.714 240.219 204.933 240.104 205.096 239.926C205.258 239.749 205.353 239.52 205.364 239.28V239.226C205.32 238.876 205.293 238.523 205.284 238.17C205.426 238.957 205.533 239.765 205.604 240.593C205.613 240.777 205.659 240.956 205.74 241.121C205.821 241.286 205.935 241.432 206.074 241.552C204.344 244.251 202.475 246.858 200.474 249.363C200.622 248.844 200.565 248.287 200.314 247.809C199.426 246.247 198.654 245.076 198.885 243.203C199.116 241.33 195.894 240.682 195.53 242.626ZM152.41 272.857C155.57 270.576 158.623 271.411 161.526 273.967L161.446 274.02C158.242 276.905 154.425 276.204 152.41 272.857ZM174.36 245.084C174.105 245.298 173.8 245.441 173.473 245.502C173.792 244.738 174.13 243.975 174.485 243.212L174.857 243.043C174.965 243.762 174.787 244.495 174.36 245.084ZM175.878 240.504C175.895 240.677 175.956 240.842 176.056 240.984C175.937 240.923 175.807 240.886 175.674 240.877L175.878 240.504ZM193.302 284.441C196.79 285.097 201.601 290.831 196.257 292.491C193.364 293.379 189.414 291.808 188.198 289.047C187.825 288.204 186.423 288.63 186.476 289.509C186.804 294.426 183.077 295.598 180.511 294.471C180.614 292.009 180.221 289.552 179.358 287.245C179.254 286.98 179.067 286.756 178.825 286.606C183.609 285.31 188.145 283.482 193.302 284.441ZM181.807 279.932C181.94 282.257 179.349 282.062 177.928 282.106C173.49 282.266 169.115 281.334 164.703 281.023C166.282 278.385 168.081 275.884 170.082 273.55C170.184 273.595 170.291 273.625 170.402 273.639C173.124 273.869 175.783 274.591 178.248 275.769C179.952 276.585 181.692 277.872 181.807 279.932Z" fill="#7B6A58"/>
<path d="M190.062 259.392C190.278 259.404 190.494 259.365 190.692 259.277C190.923 259.139 191.112 258.94 191.239 258.702C191.366 258.465 191.425 258.197 191.411 257.928C191.397 257.45 191.338 256.974 191.234 256.508C191.127 255.522 191.021 254.537 190.905 253.552C190.849 253.371 190.736 253.213 190.584 253.101C190.431 252.988 190.247 252.928 190.057 252.928C189.868 252.928 189.684 252.988 189.531 253.101C189.379 253.213 189.266 253.371 189.21 253.552C189.103 254.44 189.006 255.407 188.899 256.33C188.828 256.996 188.739 257.36 188.713 257.83C188.675 258.114 188.723 258.403 188.849 258.661C188.976 258.918 189.175 259.133 189.423 259.277C189.624 259.365 189.843 259.404 190.062 259.392Z" fill="#7B6A58"/>
<path d="M201.672 260.378C201.835 260.304 201.976 260.191 202.084 260.048C202.191 259.905 202.261 259.737 202.286 259.561C202.312 259.384 202.293 259.203 202.23 259.036C202.168 258.869 202.064 258.72 201.929 258.603C201.522 258.277 201.059 258.027 200.562 257.866C200.314 257.777 199.187 257.537 199.098 257.28C199.052 257.147 198.961 257.034 198.84 256.96C198.72 256.886 198.578 256.856 198.438 256.875C198.298 256.893 198.169 256.96 198.073 257.063C197.976 257.166 197.918 257.299 197.909 257.44C197.936 257.86 198.113 258.256 198.406 258.558C198.003 258.658 197.612 258.804 197.243 258.993C197.013 259.132 196.835 259.341 196.735 259.59C196.635 259.839 196.619 260.114 196.69 260.373C196.76 260.631 196.912 260.86 197.124 261.025C197.336 261.189 197.596 261.28 197.864 261.283C198.251 261.241 198.631 261.157 199 261.035C199.089 261.168 199.196 261.336 199.293 261.505C199.477 261.828 199.701 262.126 199.959 262.393C194.183 266.278 188.643 270.505 183.37 275.05C183.228 275.165 183.414 275.405 183.556 275.298C189.341 270.916 195.365 266.86 201.601 263.147H201.796H201.921C201.856 263.389 201.877 263.646 201.981 263.875C202.084 264.103 202.264 264.288 202.489 264.399C205.49 265.764 208.909 265.892 212.004 264.754C213.459 264.221 213.362 261.674 211.613 261.86C208.853 262.086 206.083 262.166 203.314 262.1C212.51 256.677 222.007 251.786 231.531 246.86C232.134 246.54 231.7 245.484 231.06 245.75C228.983 246.614 226.912 247.502 224.847 248.413C225.531 245.617 226.054 242.777 226.844 239.998C226.936 239.78 226.937 239.533 226.847 239.313C226.757 239.094 226.584 238.919 226.365 238.827C226.146 238.735 225.9 238.734 225.68 238.824C225.46 238.914 225.285 239.087 225.193 239.306C224.241 240.724 223.586 242.32 223.268 243.998C222.951 245.677 222.978 247.402 223.347 249.07C216.037 252.5 208.97 256.426 202.196 260.822C202.013 260.684 201.838 260.536 201.672 260.378Z" fill="#7B6A58"/>
<path d="M206.11 250.685C205.926 250.75 205.767 250.87 205.654 251.029C205.541 251.188 205.481 251.378 205.481 251.573C205.481 251.768 205.541 251.958 205.654 252.117C205.767 252.276 205.926 252.396 206.11 252.46C207.357 252.845 208.649 253.063 209.953 253.108C211.27 253.323 212.619 253.188 213.867 252.718C214.157 252.62 214.398 252.415 214.541 252.146C214.685 251.876 214.72 251.562 214.639 251.267C214.559 250.972 214.369 250.72 214.108 250.56C213.848 250.401 213.536 250.347 213.237 250.41C211.666 250.659 209.882 250.303 208.213 250.33C208.365 249.94 208.558 249.568 208.79 249.221C208.836 249.138 208.86 249.044 208.859 248.949C208.858 248.855 208.833 248.762 208.786 248.679C208.738 248.597 208.671 248.529 208.589 248.481C208.507 248.432 208.415 248.406 208.32 248.404C207.752 248.404 205.657 247.232 205.471 248.226C205.465 248.284 205.48 248.342 205.513 248.39C205.546 248.438 205.595 248.473 205.65 248.489C205.706 248.505 205.766 248.501 205.819 248.477C205.872 248.453 205.916 248.412 205.941 248.36C206.43 248.649 206.934 248.913 207.45 249.15C207.033 249.762 206.607 250.481 206.11 250.685Z" fill="#7B6A58"/>
<path d="M211.036 244.303C211.358 244.623 211.794 244.802 212.248 244.802C212.701 244.802 213.137 244.623 213.459 244.303C213.548 244.223 213.619 244.117 213.699 244.037C214.011 244.131 214.345 244.131 214.657 244.037C215.271 243.882 215.813 243.522 216.194 243.016C216.574 242.511 216.772 241.891 216.752 241.259C216.736 240.585 216.524 239.931 216.14 239.377C216.185 239.156 216.173 238.926 216.104 238.71C216.036 238.495 215.914 238.3 215.75 238.145C215.586 237.989 215.384 237.878 215.165 237.822C214.946 237.766 214.716 237.767 214.498 237.824C214.31 237.861 214.13 237.93 213.965 238.028C213.691 238.053 213.428 238.147 213.201 238.303C212.974 238.458 212.791 238.669 212.669 238.916C212.465 239.333 212.252 239.741 212.03 240.149C211.808 240.558 211.622 240.895 211.4 241.259C211.32 241.401 211.222 241.543 211.134 241.685C211.045 241.827 210.699 242.28 211.036 241.862C210.724 242.192 210.55 242.629 210.55 243.083C210.55 243.537 210.724 243.974 211.036 244.303Z" fill="#7B6A58"/>
<path d="M201.601 268.508C200.711 268.052 199.725 267.814 198.725 267.816C198.241 267.796 197.76 267.893 197.323 268.1C196.896 268.493 196.418 268.828 195.902 269.094C195.716 269.156 195.787 269.449 195.982 269.396C196.692 269.192 197.633 269.618 198.397 269.662C199.255 269.728 200.107 269.862 200.944 270.061C201.796 270.257 202.488 268.908 201.601 268.508Z" fill="#7B6A58"/>
<path d="M224.279 256.073C220.874 257.039 217.29 257.194 213.814 256.526C213.594 256.488 213.368 256.526 213.172 256.632C212.977 256.739 212.822 256.908 212.734 257.113C212.646 257.318 212.629 257.546 212.687 257.762C212.744 257.977 212.872 258.167 213.051 258.301C214.932 259.338 217.032 259.916 219.18 259.987C221.327 260.058 223.46 259.62 225.406 258.709C226.933 258.061 225.832 255.602 224.279 256.073Z" fill="#7B6A58"/>
<path d="M227.936 251.457C230.406 251.636 232.889 251.466 235.312 250.951C236.2 250.738 235.818 249.416 234.948 249.611C232.642 250.102 230.294 250.372 227.936 250.419C227.81 250.435 227.694 250.497 227.61 250.593C227.527 250.688 227.48 250.811 227.48 250.938C227.48 251.065 227.527 251.188 227.61 251.284C227.694 251.379 227.81 251.441 227.936 251.457Z" fill="#7B6A58"/>
<path d="M233.954 244.525C236.018 242.276 237.684 239.692 238.88 236.883C239.404 235.614 237.398 234.877 236.723 235.995C235.25 238.418 233.723 240.815 232.214 243.22C231.548 244.241 233.119 245.484 233.954 244.525Z" fill="#7B6A58"/>
<path d="M189.263 296.406C188.269 295.642 186.938 297.364 187.923 298.181C190.586 300.249 190.328 304.483 189.751 307.43C189.281 309.826 187 314.628 183.742 313.092C181.63 312.098 181.683 307.882 181.648 305.992C181.561 303.35 181.946 300.714 182.784 298.207C183.032 297.533 181.896 297.054 181.612 297.719C179.926 301.527 177.094 315.418 184.275 315.791C193.071 316.208 195.192 300.888 189.263 296.406Z" fill="#7B6A58"/>
<path d="M175.683 139.469C178.017 133.806 180.325 128.125 182.287 122.338C182.615 121.353 181.106 120.971 180.742 121.912C176.65 132.696 171.351 143.463 168.706 154.753C168.681 154.855 168.697 154.963 168.75 155.053C168.804 155.143 168.891 155.209 168.992 155.235C169.093 155.262 169.201 155.248 169.292 155.196C169.383 155.144 169.45 155.058 169.479 154.957C170.996 150.901 172.638 146.88 174.298 142.868C175.186 151.016 181.071 157.549 185.34 164.623C191.021 174.041 191.447 184.337 185.393 193.586C180.423 201.193 172.683 206.9 165.866 212.776C161.197 216.814 155.907 221.323 152.659 226.826C152.703 225.859 152.756 224.883 152.818 223.924C153.406 214.221 154.591 204.563 156.369 195.006C158.037 185.935 161.623 177.494 163.967 168.626C163.981 168.594 163.981 168.556 163.968 168.523C163.961 168.507 163.951 168.492 163.939 168.479C163.927 168.466 163.912 168.456 163.896 168.449C163.863 168.435 163.825 168.434 163.792 168.448C163.759 168.461 163.732 168.487 163.718 168.52C155.907 183.849 151.895 202.045 150.848 219.131C150.244 228.806 149.765 238.481 148.984 248.138C148.096 258.904 146.436 269.502 144.999 280.189C144.972 280.331 145.001 280.478 145.078 280.601C145.155 280.723 145.275 280.812 145.415 280.85C145.554 280.888 145.703 280.872 145.831 280.806C145.96 280.739 146.059 280.627 146.108 280.491C150.759 265.499 151.567 249.176 152.321 233.359L152.428 233.208C161.907 217.382 179.766 209.385 189.37 193.799C194.145 186.032 194.394 176.934 191.145 168.547C187.204 158.073 176.899 150.99 175.683 139.469Z" fill="#7B6A58"/>
<path d="M241.019 123.137C240.949 123.149 240.886 123.185 240.84 123.24C240.794 123.294 240.769 123.363 240.769 123.434C240.769 123.505 240.794 123.574 240.84 123.628C240.886 123.683 240.949 123.719 241.019 123.732C241.089 123.719 241.153 123.683 241.198 123.628C241.244 123.574 241.269 123.505 241.269 123.434C241.269 123.363 241.244 123.294 241.198 123.24C241.153 123.185 241.089 123.149 241.019 123.137Z" fill="#7B6A58"/>
<path d="M5.90261 507.459C8.03285 483.175 10.7045 459.476 17.4414 435.963C23.7345 414.128 32.9034 393.234 43.7233 373.281C65.4784 333.17 93.9082 297.329 121.504 261.159C124.983 256.597 128.498 252.105 131.64 247.321C132.421 260.999 133.699 274.704 137.481 287.787C137.809 288.914 139.336 288.408 139.185 287.317C137.782 276.914 135.927 266.689 135.12 256.197C134.782 251.812 134.525 247.437 134.276 243.052L134.418 242.821C134.51 242.661 134.539 242.472 134.5 242.292C134.46 242.112 134.355 241.952 134.205 241.845C133.895 236.155 133.62 230.457 133.318 224.767C132.714 214.613 131.587 203.873 134.205 193.897C135.457 189.086 137.96 184.222 138.768 179.233C141.43 172.425 144.093 165.635 146.339 158.641C151.336 142.859 154.851 126.687 159.759 110.87C163.132 100.042 168.635 86.5678 182.526 90.562C185.553 91.4496 188.42 92.6479 191.207 90.42C193.589 88.493 195.501 86.0487 196.797 83.2728C198.093 80.4969 198.741 77.4621 198.69 74.3988C198.69 74.2302 198.405 74.1769 198.379 74.3544C197.58 79.5913 192.84 91.5473 185.802 89.772C181.106 88.5827 177.458 87.2957 172.55 88.5738C162.555 91.1833 159.999 102.775 157.46 111.261C152.783 126.821 149.232 142.638 144.519 158.144C142.904 163.399 140.862 168.529 138.803 173.659C138.732 173.251 138.652 172.834 138.546 172.425C138.484 172.186 138.137 172.283 138.173 172.523C138.292 173.26 138.354 174.005 138.359 174.751C134.729 183.787 131.161 192.831 129.98 202.551C129.936 202.915 130.264 203.092 130.575 203.065C129.687 210.779 130.149 218.82 130.575 226.418C130.903 232.152 131.152 237.957 131.463 243.789C124.113 251.67 117.856 260.653 111.27 269.147C104.394 278.023 97.5681 286.95 90.7927 295.926C77.1769 314.042 64.1026 332.54 52.0578 351.747C28.1636 389.843 10.8732 431.72 5.01501 476.491C3.60927 486.75 3.12802 497.114 3.57708 507.459C3.57708 507.768 3.69959 508.063 3.91765 508.281C4.13571 508.5 4.43147 508.622 4.73985 508.622C5.04823 508.622 5.34398 508.5 5.56204 508.281C5.7801 508.063 5.90261 507.768 5.90261 507.459Z" fill="#7B6A58"/>
<path d="M387.89 539.084C377.808 537.275 367.451 537.721 357.561 540.389C357.659 530.874 357.029 521.306 356.425 511.853C355.582 498.636 354.268 485.447 352.617 472.31C349.49 446.841 344.331 421.662 337.191 397.015C329.824 371.887 319.536 347.158 306.125 324.64C294.488 305.113 278.955 288.248 265.197 270.239C254.392 256.201 245.414 240.847 238.481 224.545C236.608 206.669 238.916 188.677 241.285 170.952C242.43 162.431 244.401 154.043 245.457 145.504C246.345 138.27 247.055 129.829 243.38 123.199C243.332 123.106 243.249 123.036 243.149 123.004C243.3 122.853 243.408 122.667 243.465 122.462C243.522 122.258 243.526 122.042 243.475 121.836C243.424 121.629 243.321 121.44 243.175 121.285C243.029 121.131 242.846 121.016 242.643 120.953L242.28 120.856C244.632 116.773 248.555 110.16 244.525 105.882C241.268 102.411 234.256 102.864 229.968 101.959C226.819 101.421 223.902 99.9561 221.59 97.7513C218.545 94.6447 219.371 88.5735 219.894 84.7302C220.782 78.4283 222.761 72.3837 224.572 66.2947C224.625 66.1971 224.678 66.0995 224.723 66.0018C226.431 62.4165 227.77 58.6662 228.717 54.8092C228.815 54.4453 228.939 54.0192 229.072 53.5665C231.575 55.3418 235.472 54.4542 238.356 53.2115C239.643 52.6434 238.711 50.6463 237.424 50.9925C235.294 51.5694 232.205 52.6967 230.324 51.0369C230.183 50.9077 230.055 50.765 229.942 50.6108C230.43 48.6137 230.687 46.5545 229.942 45.2852C229.882 45.187 229.801 45.1034 229.705 45.0405C229.608 44.9777 229.499 44.9371 229.385 44.9218C229.271 44.9064 229.155 44.9168 229.046 44.952C228.936 44.9873 228.836 45.0465 228.752 45.1255C228.575 41.939 228.85 38.7525 228.353 35.5749C228.22 34.6873 227.11 34.6873 226.578 35.1044C223.578 37.5276 220.844 39.8442 217.223 41.0159C217.178 36.3648 218.953 32.0245 220.196 27.5598C220.232 27.4201 220.226 27.273 220.179 27.1366C220.132 27.0003 220.046 26.8807 219.931 26.7928C219.817 26.7049 219.679 26.6525 219.535 26.6421C219.392 26.6317 219.248 26.6638 219.122 26.7344C214.897 28.5096 210.992 31.057 206.696 32.7346C200.722 35.0867 200.713 26.5213 200.101 22.7224C200.047 22.4118 199.604 22.5094 199.586 22.7845C199.337 26.5391 199.169 34.0038 204.264 34.6873C206.136 34.9358 208.222 33.7997 209.855 33.0363C212.722 31.6961 215.456 30.1073 218.297 28.7315C216.885 33.2671 214.933 37.5098 215.128 42.4005C215.132 42.5631 215.173 42.7226 215.248 42.8674C215.322 43.0121 215.427 43.1385 215.557 43.2372C215.686 43.3359 215.836 43.4044 215.995 43.4378C216.154 43.4712 216.319 43.4686 216.477 43.4301C220.462 42.7201 223.462 40.4389 226.454 37.9625C226.693 42.2141 225.744 46.6078 227.102 50.6996C227.102 50.9037 227.039 51.099 227.004 51.2854C226.343 54.3066 225.501 57.2854 224.483 60.2058C222.459 66.0995 218.705 74.4607 211.622 75.224C204.77 75.9518 199.808 68.3451 197.127 63.1615C194.187 57.5678 192.663 51.3384 192.689 45.0189C192.689 44.2645 191.509 44.0781 191.358 44.8414C189.228 55.5903 197.252 76.582 209.997 77.5318C214.87 77.8957 218.518 75.2773 221.288 71.7446C220.047 75.4825 219.03 79.2912 218.243 83.1503C217.063 89.1949 216.468 96.5797 221.536 101.018C225.717 104.666 231.824 105.056 237.043 105.988C239.129 106.361 241.951 106.787 243.132 108.775C244.907 111.722 241.197 117.119 239.839 119.489C239.717 119.696 239.652 119.932 239.652 120.172C221.238 115.33 201.743 116.687 184.177 124.033C184.053 124.086 184.097 124.273 184.23 124.237C202.975 118.095 223.142 117.785 242.066 123.35C242.236 123.403 242.414 123.418 242.59 123.394C242.572 123.467 242.572 123.543 242.59 123.616C247.179 140.01 241.241 157.274 238.827 173.632C236.492 189.458 233.909 205.941 236.04 221.936C235.957 222.035 235.9 222.154 235.876 222.281C235.851 222.409 235.858 222.54 235.898 222.663C236.057 223.258 236.235 223.844 236.404 224.439C236.546 225.326 236.697 226.214 236.874 227.101C236.901 227.235 236.962 227.36 237.05 227.464C237.139 227.568 237.252 227.648 237.38 227.696C243.646 246.957 256.463 263.937 268.801 279.647C283.251 298.03 298.092 315.861 309.169 336.569C334.67 384.171 346.661 437.987 351.774 491.411C353.363 508.045 353.549 524.723 354.508 541.383C344.363 544.49 334.723 549.593 325.616 555.851C321.611 558.634 317.827 561.723 314.299 565.091C312.363 567.082 310.015 568.626 307.421 569.618C305.622 570.096 303.708 569.844 302.095 568.917C299.157 567.514 299.752 565.588 299.911 563.351C300.409 556.33 289.562 552.336 284.13 551.599C275.92 550.49 267.567 553.144 260.014 556.091C251.227 559.517 242.883 563.973 234.353 567.967C226.569 571.615 216.601 576.293 207.77 574.695C202.133 573.674 204.272 563.644 203.873 559.606C201.636 536.839 171.413 538.108 154.522 539.093C126.749 540.709 99.7131 557.822 71.5939 551.821C74.8957 546.283 82.7066 544.65 88.2453 542.289C94.5206 539.626 99.864 535.836 101.284 528.788C104.124 514.702 82.9019 516.3 74.6561 516.646C62.6735 517.152 51.0015 520.036 39.152 521.741C31.6744 522.948 24.1105 523.542 16.536 523.516C11.4411 523.4 3.62139 522.948 0.869827 517.808C0.612423 517.329 -0.0177852 517.755 0.150859 518.234C4.16282 527.439 20.8142 525.522 28.5541 524.989C41.7438 524.102 54.5874 521.066 67.6707 519.406C73.2726 518.83 78.9095 518.67 84.5351 518.927C91.0412 519.095 100.432 520.338 98.6568 529.019C95.7011 543.496 73.2093 539.217 67.8837 552.487C67.7776 552.879 67.8309 553.297 68.0322 553.65C68.2335 554.002 68.5663 554.261 68.9577 554.369C91.4317 559.996 113.995 550.596 135.617 545.44C146.614 542.777 157.256 542.209 168.511 542.413C177.325 542.573 187.896 543.016 195.059 548.83C201.272 553.889 200.216 562.144 200.474 569.245C200.66 574.659 203.332 577.846 208.773 578.467C217.01 579.408 225.806 575.671 233.164 572.414C242.155 568.428 250.792 563.671 259.881 559.907C269.298 556.011 280.899 552.238 290.618 557.182C292.846 558.319 296.432 560.493 296.547 563.307C296.645 565.659 296.281 567.292 297.648 569.36C300.515 573.701 306.524 573.63 310.714 571.757C316.092 569.343 320.14 563.768 324.871 560.316C330.963 555.865 337.428 551.948 344.194 548.608C347.584 546.956 351.101 545.579 354.712 544.49C354.827 546.398 354.943 548.315 355.085 550.233C355.109 550.506 355.236 550.761 355.438 550.946C355.641 551.132 355.906 551.234 356.181 551.234C356.456 551.234 356.721 551.132 356.923 550.946C357.126 550.761 357.252 550.506 357.277 550.233C357.428 548.058 357.517 545.874 357.579 543.691C367.384 541.268 377.565 540.762 387.562 542.2C389.222 542.386 389.612 539.395 387.89 539.084Z" fill="#705131"/>
<path d="M181.514 464.766C188.429 453.759 188.66 439.425 186.769 426.998C184.736 413.516 178.878 400.681 173.198 388.441C167.286 375.677 160.842 363.091 156.44 349.697C151.114 333.418 148.62 316.128 141.563 300.373C141.512 300.265 141.436 300.171 141.342 300.098V299.974C141.344 299.767 141.304 299.562 141.226 299.37C141.794 300.258 142.371 301.145 142.922 302.033C145.389 305.956 148.726 311.175 153.147 313.137C157.141 314.912 158.472 310.696 158.579 307.554C158.703 304.838 163.904 302.734 165.68 300.453C167.677 297.87 167.845 294.293 167.206 291.231C167.02 290.343 165.866 290.672 165.777 291.417C165.254 295.669 165.041 298.749 161.339 301.376C160.034 302.317 156.582 303.808 156.12 305.477C155.809 306.613 156.626 310.243 155.117 310.847C154.034 311.282 152.055 309.151 151.425 308.557C148.043 305.397 145.265 301.394 142.629 297.621C140.8 295.003 138.608 292.243 137.303 289.314C137.161 288.985 136.708 289.234 136.77 289.535C137.436 292.855 139.202 296.05 141.04 299.024C140.847 298.798 140.591 298.634 140.305 298.555C140.018 298.476 139.715 298.485 139.433 298.581C139.152 298.677 138.906 298.855 138.727 299.092C138.548 299.329 138.445 299.615 138.43 299.911C138.35 309.329 137.676 318.675 137.134 328.013C136.426 331.542 135.247 334.961 133.628 338.176C132.741 331.022 131.995 323.229 132.439 315.684C135.401 309.012 137.345 301.933 138.208 294.683C138.306 293.707 136.921 293.476 136.433 294.213C132.439 300.675 130.744 308.077 130.22 315.702C127.983 320.877 125.036 326.611 120.456 330.09C116.764 316.35 127.735 299.911 135.732 289.748C135.811 289.671 135.856 289.565 135.856 289.454C135.857 289.344 135.814 289.237 135.736 289.158C135.659 289.079 135.553 289.035 135.442 289.034C135.331 289.033 135.225 289.076 135.146 289.154C128.72 294.479 124.371 301.882 121.042 309.435C117.989 316.385 115.477 325.128 118.495 332.513C118.551 332.703 118.649 332.877 118.782 333.024C118.915 333.171 119.079 333.286 119.262 333.361C119.445 333.436 119.642 333.469 119.84 333.457C120.038 333.446 120.23 333.39 120.403 333.294C124.743 330.338 127.708 325.625 130.042 320.814C130.17 327.823 130.709 334.817 131.658 341.762C131.668 342.013 131.759 342.254 131.915 342.45C132.072 342.646 132.288 342.787 132.53 342.852C132.773 342.918 133.03 342.904 133.264 342.813C133.498 342.723 133.697 342.559 133.832 342.348C134.874 340.772 135.794 339.119 136.584 337.404C136.185 345.567 136.319 353.747 136.983 361.893C138.421 377.674 143.596 402.944 164.206 401.835C164.872 401.835 165.511 401.57 165.982 401.099C166.453 400.628 166.718 399.989 166.718 399.323C166.718 398.657 166.453 398.018 165.982 397.547C165.511 397.076 164.872 396.811 164.206 396.811C146.028 395.222 143.41 370.183 142.14 356.265C140.818 341.797 141.049 327.267 141.191 312.773C141.191 311.974 141.191 311.166 141.191 310.359C143.623 323.202 147.475 335.939 150.129 348.659C152.783 361.378 159.271 373.511 164.668 385.157C170.419 397.583 176.207 410.063 179.464 423.403C181.029 429.613 181.813 435.994 181.798 442.398C181.745 449.73 179.837 456.351 178.15 463.399C177.969 463.845 177.972 464.345 178.16 464.788C178.347 465.232 178.703 465.583 179.149 465.764C179.595 465.945 180.095 465.942 180.538 465.755C180.982 465.568 181.333 465.212 181.514 464.766ZM133.424 307.66C133.873 305.392 134.502 303.163 135.306 300.994C134.798 303.254 134.17 305.485 133.424 307.678V307.66Z" fill="#7B6A58"/>
<path d="M217.48 48.7117C217.195 48.7117 216.922 48.8248 216.721 49.0262C216.519 49.2276 216.406 49.5008 216.406 49.7857C216.406 50.0705 216.519 50.3437 216.721 50.5451C216.922 50.7465 217.195 50.8597 217.48 50.8597C217.765 50.8597 218.038 50.7465 218.239 50.5451C218.441 50.3437 218.554 50.0705 218.554 49.7857C218.554 49.5008 218.441 49.2276 218.239 49.0262C218.038 48.8248 217.765 48.7117 217.48 48.7117Z" fill="#7B6A58"/>
</g>
<defs>
<clipPath id="clip0_7_74">
<rect width="389" height="583.34" fill="white"/>
</clipPath>
</defs>
</svg>
