<svg width="185" height="336" viewBox="0 0 185 336" fill="none" xmlns="http://www.w3.org/2000/svg">
<path d="M136.607 206.766C136.607 201.121 138.201 197.281 140.131 192.129C144.478 180.53 147.93 169.167 150.071 156.974C150.947 152.007 152.047 147.587 151.981 142.397C151.935 135.553 151.414 128.926 146.803 123.722C145.642 122.519 144.562 121.241 143.569 119.895C142.569 118.538 142.007 116.909 141.955 115.225C141.943 114.386 142.153 113.56 142.565 112.829C142.977 112.099 143.576 111.491 144.3 111.068C147.33 109.514 150.584 113.539 152.053 115.712C155.485 120.798 156.572 127.997 157.982 133.906C158.575 136.468 158.344 139.347 157.85 142.219L157.975 141.824C157.119 146.981 157.573 152.409 156.605 157.699C155.367 164.437 153.522 170.708 150.248 176.656C146.869 182.954 144.849 189.89 144.32 197.017C144.083 201.437 142.654 205.29 142.094 209.717C141.698 212.846 139.67 221.442 141.29 224.209C138.204 218.915 136.587 212.893 136.607 206.766Z" fill="#FFE3EB"/>
<path d="M82.085 90.668C83.33 90.5494 84.5288 91.0435 85.7475 91.3267C88.4416 91.9393 91.2807 91.4782 94.0143 91.9327C95.8587 92.2423 97.624 92.9603 99.475 93.2501C101.432 93.5255 103.428 93.2778 105.258 92.5322L105.535 92.1303C106.171 94.0126 106.612 95.9549 106.853 97.927C106.92 98.2016 106.887 98.4911 106.76 98.7438C106.517 99.1061 106.003 99.1192 105.568 99.0863C102.821 98.9019 100.028 98.7043 97.4594 97.7228C96.1419 97.209 94.8245 96.491 93.4676 96.076C91.5573 95.503 89.5153 95.5424 87.5392 95.2987C85.0765 94.9317 82.6516 94.3454 80.2934 93.5466C80.1326 93.5207 79.9871 93.4362 79.885 93.3094C79.8422 93.244 79.8152 93.1696 79.8059 93.0921C79.5688 91.8339 80.8467 90.7866 82.085 90.668Z" fill="#DBA4A8"/>
<path d="M63.0285 162.797C64.8067 158.238 67.6797 154.186 71.3941 151L70.7354 151.079C71.1372 150.42 72.3031 150.901 72.4415 151.665C72.5798 152.429 72.1121 153.16 71.6839 153.812C66.7491 161.278 64.233 170.082 64.4776 179.028C63.6015 178.856 63.1075 177.934 62.7979 177.098C61.1963 172.451 61.2779 167.39 63.0285 162.797Z" fill="#FFE3EB"/>
<path d="M99.9822 9.9892C100.931 5.58901 104.89 2.33497 109.204 0.997783C113.519 -0.3394 118.11 -0.0825031 122.589 0.339072C133.721 1.33373 145.578 3.52723 153.496 11.412C156.717 14.6265 159.075 18.5854 161.4 22.5047C165.004 28.5978 168.607 34.7106 171.419 41.2121C177.664 55.6576 179.772 71.5128 181.814 87.1045C182.174 89.8447 182.534 92.585 182.894 95.3252C183.019 95.8692 182.969 96.4389 182.749 96.9522C182.405 97.4161 181.912 97.7484 181.353 97.8941C162.329 105.068 141.171 102.294 121.048 99.4158C120.93 94.6302 121.35 89.8466 122.299 85.1547C122.434 84.0979 122.833 83.0921 123.459 82.23C124.572 80.9126 126.429 80.715 128.07 80.3066C130.41 79.7143 132.591 78.6149 134.459 77.0862C136.327 75.5574 137.836 73.6368 138.879 71.4601C139.915 69.484 140.237 67.2103 139.788 65.0245C138.76 61.0722 134.637 58.9775 131.291 56.6589C124.335 51.8305 119.579 44.4464 115.798 36.8975C112.017 29.3487 109 21.3454 104.554 14.1391L105.002 17.8674C103.75 15.8912 100.957 15.1271 100.101 12.9468C99.7656 11.9951 99.7243 10.9647 99.9822 9.9892Z" fill="#DBA4A8"/>
<path d="M70.3072 246.084C77.6914 230.513 87.4337 216.047 93.5597 199.975C97.8084 188.836 100.417 176.788 107.485 167.184L107.775 164.964C112.946 165.623 115.903 171.709 115.251 176.88C114.599 182.051 111.47 186.511 108.73 190.95C101.092 203.352 95.9808 217.142 93.6915 231.527C92.374 239.978 91.9525 248.785 88.2966 256.558C86.0899 261.222 82.7964 265.286 80.3921 269.844C74.6152 280.733 74.2134 293.558 73.9367 305.902C73.8643 309.064 72.3426 313.424 69.2862 312.634C67.679 312.226 66.8622 310.487 66.2496 308.939C64.503 304.773 63.0459 300.493 61.8889 296.127C57.8444 279.316 62.9165 261.656 70.3072 246.084Z" fill="#EBB0B1"/>
<path d="M87.5984 40.8565C87.7477 39.9024 87.7209 38.929 87.5193 37.9845C87.1175 36.318 87.1505 32.4975 89.8907 34.6054C92.3675 36.5024 92.6178 39.2163 91.3794 41.9236C89.8901 45.1877 87.6295 48.0406 84.7923 50.2366C84.4695 50.4869 83.903 50.6779 83.7383 50.3024C83.6988 50.1691 83.6988 50.0273 83.7383 49.894C84.1401 48.1616 85.2402 46.7585 86.1031 45.2435C86.8653 43.8848 87.3721 42.3979 87.5984 40.8565Z" fill="#D48E9A"/>
<path d="M108.328 53.181C111.401 53.3305 114.479 53.3151 117.55 53.1349C115.373 50.9361 112.852 49.1072 110.087 47.7202C107.307 46.3332 104.197 45.7405 101.102 46.0076C100.614 46.0139 100.132 46.1193 99.686 46.3175C99.2398 46.5157 98.8386 46.8024 98.5067 47.1603C97.2222 48.9059 100.483 50.5527 101.636 51.297C103.673 52.4757 105.975 53.1236 108.328 53.181Z" fill="#FFE3EB"/>
<path d="M80.0958 71.5919C80.184 71.3586 80.3013 71.1372 80.4449 70.9332C80.617 70.7067 80.7629 70.4615 80.8797 70.2021C80.9688 69.7475 80.9688 69.2799 80.8797 68.8254C80.8345 67.947 81.0648 67.0765 81.5384 66.3354C81.634 66.1631 81.7695 66.0163 81.9336 65.9072C83.5013 64.9653 84.7067 68.081 85.1876 68.9966C86.314 71.1506 88.4811 72.4812 90.6022 73.7064C88.0585 74.6263 85.3971 75.1807 82.6977 75.3532C80.5569 75.4915 79.4239 73.4034 80.0958 71.5919Z" fill="#FFE3EB"/>
<path d="M98.3024 17.5185C95.7927 20.9701 94.4292 24.9948 92.4267 28.7165C91.4394 30.3699 90.3664 31.9705 89.2122 33.5119C87.5654 35.9294 88.178 38.5511 87.8092 41.2979C87.7169 41.9566 86.6959 42.0422 86.6893 41.2979C86.6893 38.9727 85.9911 36.4761 86.9594 34.2563C87.7762 32.3855 89.5943 31.0088 90.7272 29.3555C93.4082 25.4559 95.0286 20.9964 98.1048 17.3472C98.197 17.2418 98.388 17.3867 98.3024 17.5053V17.5185Z" fill="#705131"/>
<path d="M91.6824 35.9293C92.0777 37.928 92.0183 39.99 91.5086 41.9627C90.999 43.9353 90.052 45.768 88.738 47.325C87.0347 49.358 85.0904 51.1762 82.9479 52.7396C81.9598 53.4905 80.3921 54.169 79.7466 55.2559C78.9364 56.6128 80.234 57.9632 80.9191 59.2081C80.9588 59.3471 80.9517 59.4952 80.899 59.6296C80.8462 59.7641 80.7507 59.8776 80.6271 59.9524C80.5036 60.0273 80.3588 60.0595 80.2152 60.044C80.0716 60.0286 79.937 59.9663 79.8322 59.8669C78.8837 58.6285 77.3686 57.5877 77.5926 55.829C77.8165 54.0702 79.516 53.1941 80.8335 52.4432C86.8014 48.9783 92.7627 43.6164 91.577 35.9754C91.577 35.9614 91.5826 35.9481 91.5925 35.9382C91.6024 35.9283 91.6157 35.9227 91.6297 35.9227C91.6437 35.9227 91.6571 35.9283 91.667 35.9382C91.6769 35.9481 91.6824 35.9614 91.6824 35.9754V35.9293Z" fill="#705131"/>
<path d="M90.2727 44.3609C88.1978 45.3489 84.5552 42.8656 85.5696 40.5008C85.6106 40.4315 85.6668 40.3723 85.734 40.3277C85.8011 40.2832 85.8776 40.2545 85.9574 40.2437C86.0373 40.2329 86.1185 40.2404 86.1951 40.2655C86.2717 40.2907 86.3416 40.3328 86.3996 40.3888C86.9858 40.9487 87.2888 41.7062 87.8948 42.2464C88.5639 42.7246 89.3239 43.0609 90.1278 43.2344C90.5758 43.3991 90.7865 44.1171 90.2727 44.3609Z" fill="#705131"/>
<path d="M83.7252 62.4096C83.7758 63.5447 83.5497 64.675 83.0665 65.7032C82.7898 66.2829 82.3221 66.7967 82.0784 67.3764C81.5975 68.5093 82.0784 69.1022 82.3419 70.1298C82.3559 70.2565 82.3328 70.3846 82.2754 70.4985C82.218 70.6123 82.1288 70.7071 82.0186 70.7713C81.9084 70.8354 81.782 70.8662 81.6546 70.8599C81.5272 70.8536 81.4044 70.8105 81.3011 70.7358C80.8157 70.2732 80.4746 69.6799 80.3192 69.0276C80.1637 68.3753 80.2005 67.692 80.4251 67.0601C80.7723 66.3948 81.1686 65.7563 81.6107 65.1499C82.1155 64.2392 82.5366 63.2845 82.8689 62.2977C82.8951 62.1927 82.9589 62.1011 83.0482 62.0401C83.1375 61.9791 83.2462 61.9531 83.3534 61.9669C83.4607 61.9807 83.5592 62.0334 83.6301 62.115C83.7011 62.1967 83.7396 62.3015 83.7384 62.4096H83.7252Z" fill="#705131"/>
<path d="M82.2101 69.965C82.3155 71.3944 81.143 72.3956 81.1825 73.9633C81.1825 74.9514 81.6304 75.5508 81.5185 76.5982C81.3514 77.5364 81.1314 78.4645 80.8597 79.3779C80.5963 80.5372 80.504 81.7229 80.2735 82.8889C80.174 83.5609 80.0131 84.2224 79.7926 84.865C79.2042 85.7433 79.4062 86.5557 80.3986 87.3022C81.4987 89.1005 82.1772 89.1927 84.1533 89.5748C85.6865 89.8513 87.2395 90.0032 88.7972 90.0293C89.4164 90.0293 89.6206 91.0569 88.9487 91.1623C85.3126 91.7156 76.5254 91.3731 77.7506 85.8135C78.1129 84.1799 78.6597 82.6451 78.9429 80.972C79.3315 78.6863 80.3394 76.6113 79.9902 74.2927C79.8651 73.4364 79.483 72.7315 79.898 71.8686C80.2603 71.1045 81.3669 70.9003 81.4657 69.9715C81.4657 69.8755 81.5039 69.7833 81.5719 69.7154C81.6398 69.6474 81.732 69.6092 81.8281 69.6092C81.9242 69.6092 82.0163 69.6474 82.0842 69.7154C82.1522 69.7833 82.1903 69.8755 82.1903 69.9715L82.2101 69.965Z" fill="#705131"/>
<path d="M125.408 77.4086C123.946 82.7244 120.732 87.7108 115.567 89.9899C108.703 93.0266 100.417 92.4206 93.1711 91.8014C93.1009 91.7908 93.0368 91.7555 92.9905 91.7017C92.9442 91.6479 92.9187 91.5793 92.9187 91.5083C92.9187 91.4373 92.9442 91.3687 92.9905 91.3149C93.0368 91.2611 93.1009 91.2257 93.1711 91.2152C99.8799 91.1651 106.568 90.468 113.143 89.1336C116.529 88.4288 119.249 86.9863 121.291 84.1406C122.833 81.9932 123.801 79.5296 125.138 77.2834C125.158 77.2473 125.189 77.2195 125.228 77.2057C125.266 77.1918 125.309 77.1928 125.347 77.2084C125.384 77.224 125.415 77.2532 125.433 77.2902C125.45 77.3272 125.453 77.3694 125.441 77.4086H125.408Z" fill="#705131"/>
<path d="M103.098 10.5888C106.306 8.84985 107.926 5.41138 111.365 3.9227C114.803 2.43401 118.532 2.25615 122.128 2.06513C126.146 1.84775 130.033 1.63698 134.024 2.42743C138.312 3.33644 142.441 4.87706 146.276 6.99888C146.494 7.11745 146.276 7.43363 146.092 7.32165C142.237 5.32516 138.115 3.89214 133.853 3.06638C129.901 2.33521 126.094 2.58552 122.128 2.81607C118.393 3.02685 114.355 3.19811 110.93 4.92393C107.939 6.43896 106.319 9.56786 103.381 11.1027C103.045 11.2739 102.722 10.7733 103.085 10.5888H103.098Z" fill="#705131"/>
<path d="M147.844 101.016C144.559 102.226 141.128 102.995 137.641 103.302C133.86 103.625 130.83 100.443 127.22 103.065C126.37 103.684 125.244 102.848 125.244 101.912C125.244 99.3827 125.296 96.8269 125.488 94.304C125.685 91.6033 126.561 89.1595 125.725 86.4522C125.695 86.335 125.712 86.2108 125.773 86.1063C125.834 86.0018 125.933 85.9254 126.05 85.8934C126.166 85.8615 126.291 85.8766 126.396 85.9355C126.502 85.9944 126.58 86.0924 126.614 86.2085C127.701 91.3684 128.143 96.6432 127.931 101.912L126.614 100.595C128.3 100.647 129.907 100.101 131.607 100.311C133.168 100.496 134.63 101.629 136.165 101.662C138.062 101.728 140.276 100.72 142.159 100.397C144.009 100.092 145.878 99.9247 147.752 99.8965C147.893 99.8945 148.03 99.9442 148.138 100.036C148.245 100.128 148.315 100.256 148.334 100.396C148.354 100.536 148.321 100.679 148.243 100.797C148.165 100.914 148.047 101 147.91 101.036L147.844 101.016Z" fill="#705131"/>
<path d="M105.7 15.2263C106.408 15.6998 106.972 16.3605 107.328 17.1349C107.683 17.9094 107.818 18.7673 107.715 19.6133C107.643 20.0415 107.09 20.002 106.885 19.7253C106.488 19.1619 106.134 18.5696 105.825 17.9534C105.496 17.3408 105.081 16.7677 104.778 16.1485C104.475 15.5293 105.094 14.8311 105.7 15.2263Z" fill="#705131"/>
<path d="M109.599 22.1164C115.475 31.0419 118.452 41.5813 124.71 50.3158C128.267 55.1088 132.537 59.3295 137.371 62.8313C141.856 66.1973 148.154 69.5831 153.963 68.9376C154.103 68.9434 154.238 68.9935 154.347 69.0808C154.456 69.1681 154.535 69.2879 154.572 69.423C154.609 69.558 154.601 69.7013 154.551 69.8319C154.501 69.9626 154.41 70.0738 154.293 70.1496C148.681 72.7317 144.715 69.7082 140.42 66.2764C135.447 62.3241 129.578 59.4982 125.27 54.6897C117.115 45.5731 114.922 32.8929 109.105 22.4128C109.076 22.3489 109.072 22.2763 109.093 22.2093C109.114 22.1423 109.16 22.0856 109.221 22.0503C109.281 22.015 109.353 22.0035 109.422 22.0182C109.491 22.0328 109.552 22.0725 109.593 22.1296L109.599 22.1164Z" fill="#705131"/>
<path d="M144.195 68.226C143.833 70.0308 143.325 71.8159 141.903 73.0806C141.007 73.8777 139.874 74.2202 138.899 74.8789C137.581 75.7484 136.679 77.079 135.408 77.9881C132.931 79.76 128.781 80.3397 127.444 76.9209C127.253 76.4335 127.931 76.1371 128.261 76.4401C131.192 79.2001 134.716 75.9527 137.483 74.5035C138.59 74.0073 139.665 73.4441 140.704 72.8172C142.337 71.6644 143.095 69.8332 143.879 68.0876C143.971 67.8966 144.248 68.0415 144.208 68.226H144.195Z" fill="#705131"/>
<path d="M132.186 73.3245C137.364 70.4723 141.731 79.2002 138.774 83.1064C137.008 85.4382 133.906 86.3538 131.31 84.8058C130.158 84.1414 129.316 83.0467 128.971 81.7622C128.625 80.4777 128.803 79.1084 129.466 77.9552C129.535 77.8373 129.648 77.7516 129.78 77.717C129.912 77.6824 130.053 77.7018 130.171 77.7708C130.289 77.8398 130.374 77.9528 130.409 78.085C130.444 78.2172 130.424 78.3577 130.355 78.4756C129.262 80.7943 130.52 83.2974 133.214 83.3501C134.056 83.3326 134.878 83.0924 135.596 82.6538C136.315 82.2153 136.904 81.5941 137.305 80.8536C139.465 77.1714 136.896 72.7514 132.391 73.7922C132.331 73.8071 132.268 73.8003 132.214 73.7729C132.159 73.7456 132.115 73.6995 132.092 73.643C132.068 73.5865 132.065 73.5234 132.083 73.465C132.102 73.4066 132.141 73.3567 132.193 73.3245H132.186Z" fill="#705131"/>
<path d="M125.349 100.325C123.676 99.3896 121.93 99.3633 120.079 99.3633C119.888 99.3633 119.79 99.08 119.974 98.9878C121.865 98.0656 124.019 98.6584 125.678 99.7848C125.738 99.8322 125.778 99.8994 125.792 99.9742C125.806 100.049 125.793 100.126 125.754 100.192C125.716 100.257 125.655 100.307 125.583 100.331C125.511 100.356 125.433 100.354 125.362 100.325H125.349Z" fill="#705131"/>
<path d="M119.157 98.6848C119.388 94.3373 119.098 90.0162 120.079 85.7411C120.165 85.3525 120.817 85.3262 120.883 85.7411C121.588 89.9766 121.68 94.9631 119.276 98.7177C119.27 98.7288 119.262 98.7383 119.252 98.7448C119.241 98.7514 119.229 98.7549 119.216 98.7549C119.204 98.7549 119.192 98.7514 119.182 98.7448C119.171 98.7383 119.163 98.7288 119.157 98.7177V98.6848Z" fill="#705131"/>
<path d="M106.075 91.5311C107.505 95.7403 108.15 100.094 108.875 104.468C109.474 108.104 110.377 112.373 107.096 114.869C106.701 115.172 106.247 114.599 106.438 114.211C107.353 112.564 107.215 110.258 107.189 108.394C107.162 106.53 107.261 104.613 107.373 102.716C107.604 98.9679 106.642 95.2199 105.581 91.6563C105.565 91.5933 105.575 91.5265 105.607 91.4702C105.639 91.4138 105.692 91.3723 105.755 91.3543C105.817 91.3363 105.884 91.3434 105.942 91.3739C105.999 91.4045 106.042 91.4561 106.062 91.5179L106.075 91.5311Z" fill="#705131"/>
<path d="M106.069 119.889C100.799 124.282 93.3885 125.158 88.6392 130.164C83.7581 135.335 81.9335 142.911 79.7598 149.498C77.2171 157.178 74.2727 164.681 71.3809 172.236C68.4299 179.956 65.8083 187.841 62.6267 195.476C62.4422 195.924 61.7374 195.765 61.8757 195.265C64.2405 186.972 67.2311 178.837 69.833 170.616C72.4349 162.395 74.9907 154.306 78.0142 146.244C80.234 140.355 82.9018 134.663 87.3942 130.138C92.5058 124.974 99.5738 122.978 105.634 119.269C105.976 119.059 106.391 119.566 106.069 119.836V119.889Z" fill="#705131"/>
<path d="M107.38 109.784C105.977 112.215 103.23 113.381 101.234 115.265C98.5463 117.801 97.5384 121.226 96.3462 124.592C96.328 124.658 96.297 124.72 96.2549 124.774C96.2128 124.829 96.1604 124.874 96.1008 124.908C96.0411 124.942 95.9754 124.964 95.9073 124.972C95.8392 124.981 95.7701 124.976 95.7039 124.958C95.6378 124.939 95.5758 124.908 95.5216 124.866C95.4674 124.824 95.4221 124.772 95.3881 124.712C95.3542 124.653 95.3323 124.587 95.3238 124.519C95.3152 124.451 95.3202 124.382 95.3383 124.315C95.997 121.305 97.7558 118.637 99.6199 116.246C100.506 115.007 101.493 113.844 102.571 112.768C103.941 111.523 105.641 110.792 106.991 109.475C107.035 109.435 107.091 109.413 107.149 109.411C107.208 109.409 107.266 109.427 107.312 109.463C107.358 109.5 107.391 109.551 107.403 109.608C107.415 109.666 107.407 109.726 107.38 109.778V109.784Z" fill="#705131"/>
<path d="M81.0442 139.275C77.4411 146.336 70.8276 150.532 66.3154 156.849C63.5574 160.715 62.3172 165.46 62.8309 170.181C63.2854 175.22 65.7424 179.765 66.2891 184.719C66.3747 185.483 65.3274 185.589 64.9717 185.075C62.1392 181.043 60.7691 175.062 60.5649 170.181C60.3741 165.932 61.5542 161.734 63.9309 158.206C68.6604 151.085 76.4464 146.501 80.8202 139.103C80.9191 138.932 81.1694 139.103 81.0837 139.255L81.0442 139.275Z" fill="#705131"/>
<path d="M156.085 124.467C157.402 132.924 158.943 140.974 158.225 149.583C157.567 157.488 155.531 165.056 153.101 172.546C150.545 180.45 147.699 188.203 145.657 196.259C143.483 204.823 142.423 213.511 141.211 222.252C141.119 222.911 140.111 222.713 140.071 222.101C139.011 205.396 144.551 189.389 150.084 173.916C152.758 166.426 155.393 158.818 156.756 150.96C158.298 142.12 156.895 133.339 155.808 124.532C155.808 124.381 156.058 124.341 156.085 124.493V124.467Z" fill="#705131"/>
<path d="M137.087 105.97C140.717 116.819 140.802 128.366 136.732 139.11C136.613 139.413 136.132 139.301 136.224 138.965C139.297 128.239 139.468 116.889 136.718 106.075C136.704 106.027 136.711 105.974 136.735 105.93C136.76 105.885 136.801 105.852 136.85 105.838C136.899 105.824 136.952 105.83 136.996 105.855C137.041 105.88 137.073 105.921 137.087 105.97Z" fill="#705131"/>
<path d="M107.584 160.9C106.335 167.226 104.676 173.464 102.617 179.575C100.641 185.286 98.6647 191.273 95.7203 196.582C95.6698 196.664 95.5918 196.725 95.5004 196.754C95.4091 196.783 95.3104 196.778 95.2222 196.741C95.1339 196.703 95.062 196.636 95.0192 196.55C94.9765 196.464 94.9658 196.366 94.9891 196.273C96.9652 190.344 99.5408 184.633 101.51 178.698C103.48 172.763 105.305 166.763 106.964 160.696C106.988 160.609 107.045 160.534 107.124 160.489C107.202 160.444 107.295 160.432 107.383 160.455C107.47 160.479 107.545 160.536 107.59 160.615C107.635 160.693 107.647 160.786 107.623 160.874L107.584 160.9Z" fill="#705131"/>
<path d="M103.743 100.555C99.0402 100.154 95.0089 97.9206 90.4506 97.0116C86.8343 96.3133 81.558 98.4607 78.8639 95.1013C78.7601 94.9882 78.6942 94.8456 78.6753 94.6933C78.6564 94.541 78.6855 94.3866 78.7585 94.2516C79.5621 92.697 80.1813 91.0568 81.0179 89.5154C81.0724 89.4303 81.1553 89.3672 81.2518 89.3373C81.3484 89.3074 81.4524 89.3126 81.5455 89.352C81.6386 89.3915 81.7148 89.4626 81.7605 89.5528C81.8061 89.643 81.8184 89.7464 81.7952 89.8448C81.2945 91.5245 80.57 93.1383 80.0364 94.7917L79.549 93.9288C83.3958 94.963 87.3283 95.1606 91.2016 96.1091C95.47 97.1499 99.4947 99.0602 103.849 99.732C104.317 99.7979 104.211 100.595 103.743 100.555Z" fill="#705131"/>
<path d="M96.9455 60.8222C96.7715 60.9611 96.6126 61.1178 96.4713 61.2899C95.088 62.9696 95.9048 65.5781 97.3408 67.2183C100.134 70.3999 104.955 70.8741 108.921 71.546C113.031 72.2442 118.228 71.6317 120.942 68.1207C121.725 67.128 122.206 65.9311 122.327 64.6727C122.448 63.4143 122.204 62.1477 121.625 61.0241C121.046 59.9004 120.155 58.9671 119.06 58.3356C117.965 57.7042 116.711 57.4012 115.449 57.4628C111.931 57.5945 108.967 60.4665 105.449 60.6048C103.882 60.6641 102.347 60.1635 100.792 59.9988C99.4521 59.7753 98.0769 60.0696 96.9455 60.8222Z" fill="#C9B19B"/>
<path d="M90.2332 73.6405C88.2571 73.4693 86.169 74.1741 84.3048 73.1465C82.7832 72.3099 82.0257 70.5643 80.7214 69.4577C80.458 69.2337 80.7214 68.799 81.0508 68.8912C82.5131 69.3062 83.2312 70.7554 84.5354 71.4404C86.2612 72.356 88.4877 72.4285 90.332 73.0806C90.6153 73.186 90.5955 73.6735 90.253 73.6405H90.2332Z" fill="#705131"/>
<path d="M98.4804 47.259C100.184 49.4382 102.53 51.0261 105.186 51.7975C107.584 52.5023 110.001 52.2059 112.432 52.6407C112.761 52.6999 112.735 53.1215 112.518 53.2994C108.308 56.3558 97.7294 53.6353 97.4791 47.7069C97.4805 47.5885 97.5166 47.4731 97.5829 47.3749C97.6491 47.2768 97.7427 47.2002 97.852 47.1546C97.9613 47.1091 98.0816 47.0966 98.198 47.1186C98.3143 47.1407 98.4216 47.1963 98.5067 47.2787L98.4804 47.259Z" fill="#705131"/>
<path d="M87.1307 42.5887C87.0981 43.9332 86.6621 45.2368 85.8791 46.3302C84.8878 47.8405 84.2153 49.5373 83.903 51.3167C83.8569 51.5933 83.4682 51.4945 83.4419 51.2508C83.2641 49.817 83.4546 48.3616 83.9952 47.0219C84.6869 45.4344 85.9121 44.1631 86.4456 42.5031C86.4678 42.4259 86.517 42.3592 86.5842 42.3151C86.6513 42.271 86.7321 42.2525 86.8118 42.2628C86.8915 42.2732 86.9648 42.3118 87.0184 42.3716C87.0721 42.4313 87.1026 42.5084 87.1043 42.5887H87.1307Z" fill="#705131"/>
<path d="M94.0274 202.274C91.959 210.178 88.9553 218.564 84.7066 225.605C81.031 231.698 74.3319 234.893 67.7844 237.152C59.6032 239.972 51.0202 238.872 42.5491 238.891C33.0703 238.891 23.9076 240.426 14.5934 241.974C14.369 242.036 14.129 242.006 13.9264 241.892C13.7238 241.777 13.5752 241.586 13.5132 241.362C13.4511 241.137 13.4808 240.897 13.5957 240.695C13.7106 240.492 13.9013 240.343 14.1257 240.281C21.7339 237.765 30.0138 236.744 37.9974 236.461C46.5014 236.164 55.2754 237.739 63.6871 236.204C67.7777 235.466 71.6312 233.885 75.4452 232.252C77.1315 231.54 79.3381 230.987 80.7149 229.768C82.467 228.207 83.1257 225.612 84.0084 223.524C87.0121 216.311 90.3584 209.17 93.6322 202.076C93.7441 201.846 94.0998 202.01 94.0406 202.247L94.0274 202.274Z" fill="#705131"/>
<path d="M60.9338 201.18C54.3006 208.96 44.7888 212.925 35.2441 215.869C29.9744 217.496 24.6322 218.965 19.3955 220.75C12.8545 222.977 6.67577 225.954 0.371904 228.747C0.0886588 228.866 -0.155067 228.49 0.121591 228.319C10.0023 222.391 21.2003 218.399 32.1152 214.868C42.1737 211.614 52.7197 208.281 60.2158 200.442C60.6835 199.955 61.3751 200.68 60.947 201.18H60.9338Z" fill="#705131"/>
<path d="M77.2764 232.594C76.42 241.948 70.0305 249.563 66.737 258.08C63.6674 265.984 62.7847 274.613 63.0021 283.045C63.2195 292.069 64.6884 301.021 66.6975 309.808C68.6209 318.207 71.5324 326.368 73.4295 334.767C73.6271 335.65 72.2899 336.335 71.8881 335.426C68.3904 327.521 66.2034 318.846 64.2866 310.48C62.1981 301.787 60.9561 292.913 60.5781 283.98C60.3146 275.595 61.0787 267.018 63.9111 259.074C67.2047 249.787 73.4163 242.02 76.1302 232.449C76.3081 231.837 77.3356 231.929 77.2764 232.601V232.594Z" fill="#705131"/>
<path d="M120.079 205.534C107.175 226.969 116.641 251.763 123.755 273.342C123.893 273.77 123.268 273.909 123.096 273.526C114.21 252.342 106.306 226.402 119.599 205.251C119.79 204.948 120.257 205.251 120.079 205.534Z" fill="#705131"/>
<path d="M87.111 71.5723C85.9974 71.0972 85.026 70.3414 84.2917 69.3788C83.8566 68.7992 83.3811 68.2511 82.8689 67.7386C82.3814 67.3368 81.6568 67.6069 81.0706 67.3368C80.9781 67.2835 80.8992 67.2095 80.8401 67.1206C80.781 67.0317 80.7433 66.9303 80.7299 66.8244C80.7165 66.7185 80.7278 66.6109 80.7629 66.5101C80.798 66.4093 80.856 66.318 80.9322 66.2433C81.1617 66.0609 81.4272 65.9291 81.7113 65.8568C81.9954 65.7844 82.2915 65.7731 82.5803 65.8235C82.8691 65.8739 83.1439 65.9849 83.3867 66.1493C83.6294 66.3136 83.8346 66.5275 83.9887 66.7769C85.0492 68.3841 85.4312 70.1363 87.3217 71.0717C87.5918 71.21 87.4008 71.6843 87.111 71.5723Z" fill="#705131"/>
<path d="M99.9032 13.1447C96.3 12.6573 94.8443 17.512 91.9986 19.0731C91.0738 19.5709 90.0548 19.8691 89.0076 19.9485C87.9603 20.028 86.908 19.8868 85.9187 19.5342C85.8234 19.4982 85.745 19.4279 85.6988 19.337C85.6527 19.2461 85.6423 19.1413 85.6695 19.0431C85.6967 18.9449 85.7597 18.8604 85.846 18.8062C85.9324 18.7521 86.0358 18.7321 86.1361 18.7504C90.4045 19.7977 92.6507 17.5054 95.2724 14.6202C96.5898 13.1579 98.0324 12.2884 100.028 12.6441C100.384 12.71 100.226 13.2172 99.8834 13.1711L99.9032 13.1447Z" fill="#705131"/>
<path d="M164.391 42.1282C165.708 43.4917 163.976 41.4036 162.415 38.9137C164.72 41.8318 161.822 37.7675 165.458 42.5827C163.119 39.3484 163.996 40.5407 162.382 38.1759C164.292 40.8108 164.582 40.6395 166.993 43.742C164.305 40.1718 163.442 39.4999 160.761 35.7189C162.665 38.031 163.548 38.7951 166.558 42.5893C165.907 41.69 165.302 40.7578 164.746 39.7964C164.911 40.0467 164.292 39.3221 163.989 38.9664C165.122 40.1718 165.306 40.0796 165.629 40.2443C165.952 40.409 166.518 40.8437 168.488 43.0569C163.923 37.7016 168.488 42.0689 164.042 37.1944C164.272 37.313 166.393 39.4868 167.302 40.4485C163.673 36.3249 166.644 39.2496 164.575 36.7531C166.696 39.0257 166.182 38.143 167.506 39.388C167.012 38.9269 166.341 38.2352 165.346 37.122C166.993 38.7227 165.511 37.122 163.805 35.1459C165.122 36.2986 166.65 38.2681 168.508 40.1059C167.803 39.0915 166.136 37.5238 164.608 35.8375L168.646 39.7898C168.304 39.355 167.605 38.5711 166.584 37.4645C167.77 38.5975 169.489 40.2574 167.737 38.2681H167.427L165.478 36.1998L168.185 38.6436C165.636 35.5213 161.268 31.3253 157.138 27.1425L156.368 26.4245C154.971 25.0017 154.214 24.1585 154.168 24.0795C153.239 23.1244 149.609 19.5871 149.063 19.047C149.234 19.3763 153.779 23.9873 154.662 25.0939C153.832 24.3035 153.008 23.4998 152.205 22.6962L153.522 24.152C154.405 25.14 152.909 23.5394 152.587 23.2034C154.563 25.3574 153.114 23.9675 153.377 24.3562L151.704 22.4525C149.636 20.2458 150.67 21.4578 151.895 22.9663C153.12 24.4747 154.53 26.2598 153.456 25.1005L150.604 21.807L152.975 24.7053C151.506 23.0256 149.682 20.753 150.433 21.8267C152.376 24.4615 151.928 24.2771 151.388 23.8028C150.848 23.3286 150.143 22.6501 151.164 24.4088C150.736 23.7831 150.591 23.5657 150.281 23.0914C152.811 26.9646 151.302 25.1005 149.767 22.9597C148.233 20.8189 146.632 18.4278 148.45 21.5171L149.201 22.6764C148.687 22.1099 149.958 23.8292 150.947 25.5946C150.041 24.1268 149.06 22.7065 148.009 21.3393C148.496 22.1231 148.47 21.998 148.825 22.571C149.346 23.434 150.736 25.7197 150.261 25.0346C146.83 19.5739 147.054 20.1931 146 18.5793C147.462 21.1285 148.634 23.4142 150.92 27.6102C150.373 26.6617 149.254 24.7119 148.16 22.828C149.043 24.5077 148.292 23.2495 147.436 21.7411C147.51 21.7797 147.577 21.831 147.633 21.8926L147.482 21.6357L147.673 21.9321C147.788 22.0767 147.888 22.2335 147.969 22.3998C146.652 19.9164 146.856 20.4237 145.189 17.4331C145.222 17.5583 144.603 16.5373 145.848 18.8032C145.848 18.8559 146.033 19.1919 146.257 19.653C145.993 19.1985 145.841 18.9481 145.98 19.2314L146.151 19.5344C146.368 19.9428 146.507 20.1931 146.658 20.4895C147.277 21.807 144.801 17.3475 143.688 15.2725C145.723 19.0733 145.914 19.5871 147.343 22.3603C147.293 22.2819 147.26 22.1939 147.247 22.1019C147.233 22.01 147.239 21.9162 147.264 21.8267C147.462 22.1956 147.699 22.6567 148.2 23.6184C149.655 26.609 146.704 21.1087 147.633 23.2166C147.798 23.5196 148.147 24.1519 148.667 25.1927C149.01 26.0029 147.831 23.8028 146.981 22.1429C148.358 24.8765 149.227 26.912 148.562 25.7197C147.396 23.4867 146.895 22.4261 146.935 22.7094L147.916 24.6328C148.575 26.3059 146.448 21.8201 147.146 23.4471C147.452 23.9821 147.723 24.5366 147.956 25.1071C147.297 24.0729 146.816 23.0124 144.913 19.126L146.368 22.1824C145.413 20.3973 143.582 16.6887 145.486 20.865C142.581 14.4491 143.832 17.5714 143.826 17.7032C143.925 17.8876 144.531 19.2446 144.834 19.9296C143.832 17.8283 143.78 17.8152 143.918 18.3355C144.102 18.845 144.241 19.3696 144.333 19.9033L146.309 24.6526C146.131 24.5142 142.245 15.1474 142.271 15.3779L143.226 17.6439C142.785 16.9457 142.897 17.3606 143.108 18.2301L144.373 21.4315C143.714 19.956 143.714 20.0021 143.055 18.52C144.517 22.4722 144.004 21.4644 143.556 20.5949C143.108 19.7254 142.726 18.9613 144.214 23.4076L142.028 17.3607C142.028 17.5188 141.487 16.3397 143.055 20.9045V20.8123C144.695 25.4233 143.009 20.9506 143.319 21.9914C143.108 21.5039 142.001 18.4871 141.731 17.5583C142.594 20.7267 141.231 17.6373 142.923 23.2298C142.034 21.3261 140.368 16.4977 140.348 17.2223L140.578 17.9469C140.756 18.8098 141.105 20.5422 142.667 25.6933C142.107 24.5735 139.874 17.5253 140.354 19.9033L141.013 21.8794C141.257 22.9268 140.447 20.4895 140.249 19.9033C140.249 20.0153 140.572 21.0363 140.789 21.7608C141.25 23.5525 140.407 20.7728 140.223 20.2787L140.75 22.0243C141.593 25.6604 139.32 18.7308 139.366 19.6925C139.551 20.1997 140.078 22.1824 140.295 23.0256C138.596 17.2618 138.721 18.7505 138.253 17.4463L138.912 19.6991C137.687 15.9576 140.401 25.8712 139.162 22.0968L138.372 18.7176C138.563 19.732 138.194 18.6386 137.515 16.0432C137.95 18.0194 138.701 20.4829 138.714 21.0955C139.142 22.7226 139.109 22.1692 139.63 24.2969L140.592 28.7036C140.71 29.1779 140.717 29.3097 140.526 28.8683C138.615 21.6225 140.256 28.5456 138.484 21.4381C138.082 21.0033 139.096 25.8976 137.99 22.6238C139.709 29.7312 137.562 23.0783 139.913 32.1817C139.788 32.32 139.202 30.5481 138.181 26.912C138.023 26.1742 138.352 27.3138 138.497 27.7551C137.871 25.4496 137.601 25.1203 137.535 25.1993C138.154 27.2347 138.76 28.954 139.722 32.4451C139.366 31.6151 138.319 28.2755 137.957 27.1754L139.116 31.8918C138.128 28.4863 139.979 35.7255 138.694 31.1343L138.365 29.718C138.24 30.133 137.048 25.4496 136.725 24.9227L137.199 26.7736C137.318 27.5377 136.119 23.1771 137.127 27.4323L137.291 27.5575C138.102 30.851 138.372 32.3397 138.747 34.0129C138.398 33.2026 137.351 28.6575 137.179 28.2491C137.924 31.3385 137.588 29.9025 138.391 32.9194C137.571 30.9079 136.887 28.8437 136.343 26.7407C136.468 27.2545 136.639 27.9132 136.639 27.9132C136.639 28.5258 135.078 23.019 135.645 25.6867L135.79 26.1281C136.797 30.6996 134.38 21.9782 136.303 29.7312C136.606 31.1936 136.363 29.369 137.226 33.2092C137.66 35.7255 135.46 26.7605 135.849 29.0133C135.809 28.763 135.921 29.2306 136.106 29.9354C135.76 29.453 135.476 28.9284 135.263 28.3743C136.705 34.7374 134.36 27.0042 136.053 34.4081C135.447 31.7733 135.23 31.4043 134.933 30.2516L135.23 31.4043C135.23 31.6283 134.571 29.1714 134.275 28.1504C134.795 30.4031 133.458 25.8317 133.794 27.3138C133.372 25.6868 133.425 26.1413 133.366 26.1874C133.972 27.9593 134.321 29.6588 135.039 32.1882C135.039 33.0577 132.957 25.1202 133.063 26.4706L133.767 29.5995C132.509 24.9292 132.825 26.8988 132.364 25.1598C132.72 26.6287 132.898 27.4982 133.53 29.8366C133.148 28.7432 133.669 31.154 132.871 28.4138L132.628 27.1688C132.852 29.0198 130.889 22.38 131.541 25.5748L133.445 32.5571C134.103 35.462 132.167 28.8091 133.221 33.0841C132.615 30.7259 132.819 31.4241 132.101 29.1318C132.022 28.6312 132.608 30.4097 132.674 30.3372L131.337 26.3191L132.147 28.1964C131.599 26.6035 131.136 24.983 130.757 23.3417C129.967 21.1614 131.501 26.7539 130.579 24.1059C130.783 25.0939 131.547 27.5838 131.897 29.033C131.06 26.6089 133.036 34.1512 131.897 30.5151C132.068 31.2397 132.015 30.6995 132.463 32.3331C132.067 31.5727 131.771 30.7647 131.58 29.9288L131.442 29.1318C131.442 29.3492 130.606 26.497 130.935 28.1964C130.671 27.4126 130.276 26.161 129.96 25.1005C129.802 24.5604 129.677 24.1124 129.565 23.7304C129.498 23.5343 129.456 23.3308 129.44 23.1244C129.655 24.3305 129.966 25.5176 130.368 26.6748C130.177 26.8461 128.116 19.3104 128.86 22.7225C128.939 22.9333 129.058 23.2759 129.17 23.6909C129.255 24.2047 129.222 24.2376 129.051 23.816C129.413 24.3364 130.632 29.4019 130.474 28.0581C131.534 31.7667 130.54 28.8881 130.889 30.3307C130.052 27.8737 129.314 25.061 128.722 23.2298C128.904 23.781 129.036 24.3476 129.117 24.9227L128.34 22.1165C128.3 22.1165 128.261 22.1824 128.004 21.5369L128.432 22.6238C128.471 23.1573 129.664 27.6563 128.689 25.0478C129.077 26.161 129.835 28.3414 130.164 29.8564C129.446 28.1503 130.474 31.0355 131.021 33.1895C130.665 32.6493 129.479 28.2426 129.743 30.0672C129.708 29.9838 129.679 29.898 129.657 29.8103C129.604 29.6522 129.538 29.4282 129.459 29.1516C129.328 28.6773 129.163 28.0977 129.038 27.6563C129.282 29.0791 128.564 27.182 129.038 29.257C128.837 28.2297 128.533 27.2254 128.129 26.2598C128.519 27.4431 128.818 28.6542 129.025 29.8827L128.57 28.506C128.798 29.3842 129.089 30.2449 129.44 31.0816C129.295 30.6139 129.17 30.166 129.242 30.2714C129.677 31.3385 131.31 36.6411 131.356 37.201C130.81 35.9561 129.644 32.2673 129.229 30.8774C129.505 32.4254 126.996 24.6394 127.483 26.8593C127.483 26.8593 127.483 26.8593 127.483 26.9317C127.483 27.0042 127.483 27.0437 127.529 27.1096C127.575 27.2808 127.635 27.5048 127.707 27.7683C127.865 28.315 128.063 29.0198 128.274 29.7444C128.695 31.2199 129.13 32.7613 129.15 33.038C128.023 29.9223 128.537 30.6139 127.562 27.9593C128.748 31.9116 128.221 30.772 127.562 29.2306C126.904 27.6892 126.06 25.7724 126.706 28.1701L128.076 31.984C128.076 32.2541 128.116 32.5439 127.892 32.1553L127.233 30.0277C126.857 29.1911 126.956 30.0277 128.037 32.8996C126.785 29.863 127.378 31.6942 127.595 32.7284C127.641 32.3595 127.411 32.2014 128.254 34.1314C128.768 36.0614 128.3 34.7901 127.878 33.9997C128.135 34.6584 128.432 35.5213 128.669 36.213C128.768 36.5291 128.867 36.8256 128.952 37.0825C128.952 37.1747 129.005 37.2603 129.025 37.3393C129.044 37.4184 129.025 37.4382 129.025 37.4382C128.037 35.0536 128.056 35.6596 127.431 34.4344L127.859 35.5608C127.062 34.2434 128.847 39.5658 127.312 36.3447C127.312 36.2854 127.266 36.2525 127.24 36.1998L127.167 35.9627C125.85 32.3727 125.981 33.5518 125.309 32.1158L125.916 33.6901L126.159 34.3488C126.201 34.4359 126.228 34.5294 126.238 34.6255C125.819 33.5285 125.331 32.4592 124.776 31.4241C125.151 32.6032 126.416 35.3764 126.205 35.2908C126.027 35.0273 125.309 33.3146 124.789 32.0433C125.256 33.1798 125.66 34.3409 126.001 35.5213C126.39 36.3776 125.962 35.2315 126.067 35.4357C126.811 37.1879 126.495 36.5752 127.424 38.7885C127.463 39.0586 126.107 35.7189 126.508 36.898L127.674 39.4736C127.925 40.1323 127.431 39.0849 127.325 38.8873C127.641 39.4999 128.755 42.1809 129.4 43.7091C128.432 41.8647 126.39 36.7004 125.178 33.8284C125.836 35.9561 124.229 32.5966 123.992 32.511L125.408 35.5411C124.954 34.7659 124.545 33.9654 124.183 33.1434H124.058C124.611 34.2039 125.059 35.159 126.146 37.5962C125.659 36.8058 125.856 37.6423 123.979 33.5979L124.288 34.2566C124.783 35.7848 124.862 36.786 125.507 38.1232C124.717 36.8717 125.632 39.2826 123.709 35.3105C123.129 34.4081 125.962 40.5407 123.439 35.6069C124.618 38.2813 123.959 36.674 125.415 39.5987C126.614 42.2336 123.169 35.6465 125.988 41.3443C124.98 39.6514 125.421 40.1586 124.111 37.6621C126.745 42.9318 124.295 38.6238 125.731 41.6803C124.572 39.579 125.112 40.3628 123.841 38.143C124.167 38.6863 124.441 39.2599 124.657 39.8556L122.905 36.5621L127.075 44.763C124.868 40.9952 124.13 39.131 123.07 37.7477L123.235 38.0112C125 41.4102 121.667 35.5806 122.885 38.2286C122.596 37.5699 123.775 39.77 124.315 40.6922L123.478 39.4209C123.59 39.5921 123.709 39.8029 123.913 40.185C125.197 42.6617 123.096 38.9071 124.236 41.1335C124.671 41.7922 126.041 44.2295 126.666 45.3888L124.466 41.7988L127.029 46.1661C127.081 46.3703 126.054 44.7367 125.435 43.8211C124.815 42.9055 124.605 42.7013 126.35 45.7116L126.792 46.3373C127.391 47.3715 129.249 50.5729 127.878 48.3925C127.556 47.8919 126.014 45.3493 126.126 45.4678L126.673 46.4954C128.386 49.2884 128.972 50.0525 129.505 50.8232C128.807 49.6638 128.188 48.7746 127.174 46.9829C127.793 47.8655 128.965 49.756 129.565 50.6716C128.801 49.3937 127.793 47.6877 127.128 46.5679C126.33 45.0133 128.313 48.4979 128.517 48.7482C127.859 47.5757 127.463 46.805 126.937 45.9158C127.681 47.0553 127.885 47.3122 127.121 45.7511C127.121 45.7511 125.843 43.6827 124.974 41.9964C126.12 43.6498 128.069 47.141 129.288 49.0842C130.671 51.495 130.329 50.7178 129.947 49.7429C129.565 48.768 129.044 47.6613 130.019 49.4398C130.678 50.7573 131.132 51.8047 131.62 52.6017C130.256 49.9669 130.797 50.889 130.263 49.8285C132.292 53.6688 129.947 48.9129 131.323 51.5411C130.849 50.6189 130.388 49.565 129.967 48.6428C128.326 45.3493 129.426 47.2793 126.963 42.642C127.622 43.8672 127.918 44.3942 128.063 44.6181C128.208 44.8421 128.208 44.7498 128.241 44.7432C128.274 44.7367 128.353 44.8223 128.649 45.4019C128.946 45.9816 129.473 46.9829 130.408 48.88L130.823 49.8285L130.204 48.2147V48.2937C130.006 47.7206 130.415 48.5967 128.886 45.1056C128.471 44.3085 128.412 44.3217 127.99 43.518C126.673 40.5473 129.308 45.9092 129.459 46.0475C128.346 43.6235 128.985 45.2373 127.648 42.2731C127.536 41.8647 128.405 43.5905 128.774 44.2492L128.155 42.9318C126.93 39.7963 131.205 49.5189 129.262 44.9079L130.362 47.3583C129.756 45.9158 128.787 43.4456 127.931 41.7922C128.105 42.0185 128.249 42.2665 128.359 42.53C128.603 43.0043 128.919 43.6696 129.268 44.4271C130.105 46.4493 129.65 45.4349 130.77 48.0105L131.554 49.3279V49.2686L131.488 49.1171C131.442 49.0051 131.37 48.847 131.284 48.6626L131.067 48.2147C131.037 48.1427 130.999 48.0742 130.955 48.0105C129.499 44.3546 130.296 45.817 130.955 47.108C131.613 48.3991 132.226 49.5321 130.586 45.099C131.462 47.3452 131.409 47.0751 132.055 48.5967C131.85 47.859 132.206 48.3925 131.738 46.9829L131.08 45.4481C132.035 47.2398 133.056 49.6375 132.845 48.6165C133.102 49.2752 132.002 46.3834 131.811 45.9816C132.964 48.7943 129.743 39.6909 132.009 45.7313L132.147 46.2253C131.976 45.1187 133.774 49.4069 134.235 50.1117C133.01 46.4493 133.985 49.7758 132.509 45.4415C132.167 43.9396 133.379 46.9565 133.115 45.6654C132.944 45.2307 132.799 44.7894 132.707 44.5588C132.048 42.1348 133.925 48.2147 133.873 47.6218C133.26 45.8236 133.109 45.3625 132.845 44.4073L133.866 47.3254C133.715 46.8577 132.957 44.5918 132.634 43.6959C133.952 47.5164 133.293 44.8289 134.525 48.4254L132.654 42.7013C132.377 41.6012 132.904 43.024 133.398 44.3875C132.621 41.812 132.885 42.1479 132.74 41.7132C132.496 40.4419 133.398 43.7486 134.228 45.9487L134.65 47.635L135.085 48.3859L134.426 46.6272C134.057 45.1648 135.137 48.3003 135.203 48.1883L135.816 50.3225L136.317 51.5741C134.999 47.2134 136.158 50.5399 134.545 45.5271C134.097 43.2546 135.961 48.8734 136.237 49.1566C136.164 48.9882 136.105 48.8142 136.06 48.6362C135.967 48.3201 135.849 47.9314 135.737 47.5691C135.559 46.5415 136.297 48.7878 137.054 51.034C136.646 49.7165 136.475 49.15 136.132 48.0632C136.251 47.9578 136.949 50.5333 137.45 51.7915C136.876 49.9734 136.613 49.0249 136.514 48.544C136.975 50.1579 137.338 51.2843 137.496 51.7256C134.861 43.0438 136.626 48.1093 134.564 41.2257C135.111 43.0635 136.429 46.7853 137.364 50.3225L137.14 49.6638C137.799 52.0879 137.601 51.113 137.687 51.2711C137.555 50.8693 137.377 50.3357 137.239 49.8417C138.253 52.661 137.693 49.9076 138.556 52.0088C138.286 51.1064 137.753 49.565 137.614 48.8075C137.502 47.4242 138.886 51.9496 139.702 54.0772C138.207 48.465 139.241 53.3789 137.785 48.0434C138.691 49.9232 139.491 51.8518 140.183 53.8203C138.115 45.5535 141.323 57.0809 139.814 50.586C140.513 53.3592 140.855 54.3209 140.96 54.3604C140.348 52.1274 140.433 52.0286 139.986 50.4082C140.71 52.9047 141.217 53.8532 139.841 48.4716C141.191 53.6688 139.959 48.1488 140.974 51.8112C140.585 49.8351 141.481 52.8059 141.224 51.1525C142.008 54.4461 141.751 52.661 142.153 54.0245C142.08 53.8071 141.935 53.3658 141.83 52.8915C141.171 50.0261 142.614 55.3221 142.265 53.6029C142.001 52.4041 141.494 50.5728 141.481 50.3094C142.074 52.6412 142.963 55.2826 142.317 52.3909C142.317 52.3909 142.317 52.3316 142.252 52.2064C142.186 52.0813 142.166 51.8969 142.113 51.7124L141.738 50.3357C143.114 54.2024 142.265 49.1698 143.872 53.7281L142.811 49.8153C141.79 44.6576 144.603 56.2312 144.662 55.5856C144.741 53.4514 143.852 47.5889 145.058 49.9273C145.394 51.0603 145.394 51.3435 145.809 52.9903C145.736 52.4831 144.906 49.1962 145.506 51.2382L146.039 53.3658C144.807 47.5296 147.837 56.9294 145.657 47.8919C146.81 51.1855 145.427 45.3032 147.1 50.2369C146.685 48.3266 146 46.6535 145.986 46.0804L147.166 49.2554L147.06 48.9524C148.061 52.0549 147.765 50.2172 147.416 48.1488C147.067 46.0805 146.632 43.8145 147.455 46.0014L147.35 45.6918C146.928 44.2492 146.487 42.4641 146.691 42.9384C147.007 43.9528 147.126 44.5061 147.449 45.7511C148.476 48.0697 148.582 48.1488 148.984 48.5374C148.233 46.423 148.529 46.614 147.666 43.6103C148.325 45.5469 148.555 46.7392 149.201 48.3135C149.497 48.5045 148.911 45.8433 148.753 44.7235C149.642 47.3583 149.511 46.5811 150.538 49.8614C150.854 49.9471 151.421 51.1789 151.744 51.0142L151.388 49.8878C152.804 53.9257 150.999 47.7009 151.829 50.0261C151.348 48.5901 151.118 48.0104 150.755 46.884L151.329 48.129C150.854 46.9302 149.55 43.0899 149.511 42.609C150.578 45.4151 150.123 44.5852 150.96 46.8775L149.741 43.0899C150.49 44.9928 151.136 46.9344 151.678 48.9063C151.987 48.7219 152.929 50.3884 152.995 49.6375L152.112 47.2069C152.58 48.0434 152.771 47.9314 152.112 45.7577C152.376 46.4691 152.877 47.7338 153.14 48.5704C154.523 51.7915 151.717 44.5391 153.219 48.0566C152.844 47.1739 152.6 46.7391 152.086 45.2966C152.56 46.2385 153.061 47.1739 153.568 48.1027C152.909 46.2978 151.645 42.1743 152.396 43.6761C152.737 44.5386 153.034 45.4181 153.285 46.311L153.739 47.1607L152.224 42.9318L153.786 46.535L152.468 43.0372C152.844 43.6959 154.629 48.1488 154.609 47.7997C154.095 45.4151 153.555 44.2558 152.462 40.8569C155.175 47.4901 152.725 40.4551 154.741 45.178C153.871 42.6156 153.851 42.0491 154.036 41.8845C154.22 41.7198 154.622 42.036 154.517 41.2257L154.22 40.6659C153.028 37.5567 156.658 45.5139 156.275 44.0977L155.788 43.1624C154.471 39.5724 156.328 42.5432 157.935 45.1385C157.41 44.2369 156.969 43.2887 156.618 42.306C157.277 43.5312 158.752 46.8446 158.311 45.5601C158.14 45.2571 157.889 44.7498 157.652 44.3151C157.516 44.0431 157.395 43.7638 157.29 43.4785L159.022 46.6074C158.364 44.2163 157.547 41.7593 158.93 43.3666C158.41 42.2204 157.738 41.1072 157.138 40.0335C157.797 40.5539 159.543 43.0109 160.168 43.4193L158.14 39.8161C158.265 39.7502 161.433 45.2637 159.727 41.9833C159.49 41.4827 159.47 41.812 158.509 40.2443C157.191 37.3921 160.695 43.6564 160.742 43.1162L158.291 39.1245C157.059 36.6477 159.767 41.1006 161.275 43.4522C162.784 45.8038 161.743 43.7749 160.537 41.6671C159.332 39.5592 158.021 37.3196 159.299 38.9861C160.616 40.903 161.084 41.8844 162.375 43.8013C162.013 42.6288 163.837 45.402 163.515 44.2163C159.833 38.2879 163.363 44.2954 159.951 38.7292L160.61 40.1652C158.785 36.9771 159.951 39.467 157.738 35.9561C157.204 34.8889 159.286 37.7412 160.221 38.7951C158.489 36.1603 159.833 38.5975 157.586 35.0141L158.37 36.0417C158.003 35.4687 157.608 34.9146 157.184 34.3817C155.59 31.905 157.185 34.1907 157.29 34.2171C158.199 35.574 159.477 37.5106 160.702 39.3945L160.103 38.446C162.79 42.1018 161.183 39.1047 163.396 41.9767C162.836 41.2258 162.704 40.9886 162.283 40.376C162.283 40.1718 164.799 43.5049 165.675 44.3875C164.411 42.4509 161.585 38.7687 162.573 39.6843C164.147 41.7659 166.69 45.514 166.868 45.3032C165.967 44.3057 165.139 43.2446 164.391 42.1282ZM156.789 39.2035L156.618 39.0717V39.0125C156.697 39.1442 156.75 39.1903 156.789 39.2233V39.2035ZM155.175 36.9046C155.589 37.5636 155.965 38.2453 156.302 38.9466C156.236 38.9466 156.196 38.9993 156.216 39.1376C155.808 38.2484 155.564 37.6094 155.175 36.9243V36.9046ZM146.303 19.5541L146.098 19.1853L145.868 18.8428C145.532 18.2302 145.209 17.6373 145.459 18.0523L146.303 19.5541Z" fill="#E0B1B5"/>
<path d="M149.503 14.7333C156.169 16.7819 161.142 23.0924 164.739 28.7903C166.761 32.1247 168.402 35.6754 169.633 39.3757C170.292 41.2728 170.7 43.2489 171.346 45.146C172.182 47.5832 173.368 49.836 174.402 52.1876C176.001 55.857 176.982 59.7653 177.307 63.7546C177.742 67.9901 180.232 71.4879 180.693 75.6904C180.889 77.4615 180.832 79.2515 180.521 81.0062C180.04 83.595 178.763 85.6172 179.283 88.3904C180.139 92.9619 184.144 96.3937 184.19 101.196C184.19 101.98 183.071 102.566 182.524 101.854C180.073 98.8244 179.889 94.7667 179.158 91.0845C178.502 87.6586 178.239 84.169 178.374 80.6835C178.479 76.2701 176.773 72.8382 175.39 68.7806C174.073 64.8612 174.567 60.5796 173.704 56.5483C172.887 52.7409 171.332 49.1576 170.41 45.3502C169.277 40.568 167.775 36.5828 164.653 32.7359C162.367 29.9562 160.187 27.0446 158.184 24.0607C155.807 20.5168 153.481 16.7292 149.391 15.01C149.193 14.9309 149.266 14.6214 149.476 14.6872L149.503 14.7333Z" fill="#705131"/>
<path d="M177.063 105.378C175.614 106.505 173.585 107.42 171.747 106.788C171.679 106.764 171.62 106.719 171.578 106.66C171.536 106.601 171.514 106.531 171.514 106.459C171.514 106.386 171.536 106.316 171.578 106.257C171.62 106.198 171.679 106.153 171.747 106.129C173.453 105.714 175.12 105.701 176.753 104.983C176.997 104.878 177.32 105.187 177.063 105.385V105.378Z" fill="#705131"/>
<path d="M171.049 106.577C169.073 104.911 167.755 106.623 165.918 107.236C163.941 107.895 161.853 107.895 159.825 108.171C158.402 108.362 157.038 108.83 155.596 108.665C153.475 108.408 151.36 107.69 149.213 107.387C148.791 107.328 148.962 106.663 149.397 106.729C152.361 107.216 155.069 107.815 157.868 106.531C159.359 105.792 160.974 105.334 162.631 105.181C165.305 104.957 169.178 104.114 171.194 106.366C171.218 106.39 171.232 106.422 171.233 106.456C171.234 106.49 171.221 106.523 171.197 106.547C171.174 106.572 171.141 106.586 171.107 106.587C171.073 106.587 171.04 106.574 171.016 106.551L171.049 106.577Z" fill="#705131"/>
<path d="M173.802 100.82C172.129 98.6395 171.78 96.1627 171.411 93.5015C170.853 90.2638 170.495 86.9948 170.338 83.7131C170.336 83.6065 170.374 83.5031 170.444 83.4226C170.513 83.342 170.61 83.2899 170.716 83.2761C170.822 83.2623 170.929 83.2877 171.017 83.3476C171.105 83.4076 171.168 83.4977 171.194 83.6011C172.597 89.1606 172.129 95.2471 174.356 100.589C174.494 100.932 173.987 101.064 173.802 100.82Z" fill="#705131"/>
</svg>
